<svg xmlns="http://www.w3.org/2000/svg" xmlns:xlink="http://www.w3.org/1999/xlink" width="500" zoomAndPan="magnify" viewBox="0 0 375 374.999991" height="500" preserveAspectRatio="xMidYMid meet" version="1.0"><defs><clipPath id="453dbb883f"><path d="M 9.941406 54.527344 L 364.691406 54.527344 L 364.691406 320.777344 L 9.941406 320.777344 Z M 9.941406 54.527344 " clip-rule="nonzero"/></clipPath></defs><rect x="-37.5" width="450" fill="#ffffff" y="-37.499999" height="449.999989" fill-opacity="1"/><rect x="-37.5" width="450" fill="#ffffff" y="-37.499999" height="449.999989" fill-opacity="1"/><g clip-path="url(#453dbb883f)"><path fill="#2c9090" d="M 337.195312 320.421875 L 37.460938 320.421875 C 35.1875 320.125 33.53125 319.871094 32.492188 319.652344 C 22.890625 317.632812 14.921875 310.113281 11.722656 301.132812 C 10.761719 298.449219 10.40625 295.640625 9.941406 292.789062 L 9.941406 81.726562 C 10.441406 80.371094 10.40625 78.847656 10.683594 77.691406 C 11.066406 76.113281 11.453125 74.351562 12.082031 72.886719 C 16.128906 63.417969 23.195312 57.566406 33.273438 55.332031 C 34.203125 55.128906 35.132812 55.003906 36.0625 54.960938 C 37.316406 54.910156 38.539062 54.617188 39.804688 54.617188 C 137.453125 54.570312 236.144531 54.570312 335.878906 54.617188 C 336.640625 54.617188 337.398438 54.671875 338.148438 54.78125 C 338.894531 54.894531 339.644531 55 340.398438 55.101562 C 343.011719 55.445312 345.316406 56.066406 347.320312 56.960938 C 356.867188 61.21875 363.910156 70.1875 364.613281 80.867188 C 364.726562 82.597656 364.902344 84.285156 364.890625 86 C 364.488281 139 364.710938 192.039062 364.714844 248.78125 C 364.714844 260.933594 365.035156 273.71875 364.867188 286.523438 C 364.8125 290.46875 364.722656 293.136719 364.59375 294.53125 C 363.800781 302.917969 359.84375 309.753906 352.71875 315.039062 C 349.324219 317.554688 345.527344 319.152344 341.335938 319.832031 C 339.960938 320.054688 338.578125 320.253906 337.195312 320.421875 Z M 182.140625 214.402344 C 186.648438 216.109375 191.941406 215 195.441406 211.742188 C 226.375 182.9375 257.132812 154.429688 287.714844 126.210938 C 305.378906 109.914062 322.890625 93.699219 340.25 77.566406 C 340.519531 77.320312 340.527344 77.0625 340.277344 76.792969 C 339.878906 76.378906 339.292969 76.171875 338.511719 76.171875 C 237.222656 76.136719 137.160156 76.121094 38.328125 76.121094 C 36.386719 76.121094 35.28125 76.566406 33.972656 77.820312 C 33.78125 78.003906 33.785156 78.179688 33.980469 78.355469 C 35.039062 79.285156 36.097656 80.230469 37.15625 81.195312 C 48.945312 91.96875 62.167969 104.191406 76.820312 117.863281 C 108.28125 147.210938 138.816406 175.585938 168.417969 202.984375 C 171.046875 205.417969 173.746094 207.910156 176.515625 210.464844 C 178.734375 212.511719 180.609375 213.824219 182.140625 214.402344 Z M 342.804688 105.714844 C 342.804688 105.640625 342.769531 105.578125 342.699219 105.523438 C 342.625 105.464844 342.550781 105.460938 342.476562 105.519531 C 340.039062 107.398438 338.078125 109.609375 335.761719 111.769531 C 310.636719 135.109375 284.859375 159.15625 258.433594 183.90625 C 258.183594 184.144531 257.917969 184.359375 257.636719 184.542969 C 257.234375 184.816406 257.21875 185.109375 257.589844 185.425781 C 258.46875 186.171875 259.246094 186.863281 259.925781 187.5 C 274.210938 200.886719 289.589844 215.375 306.058594 230.972656 C 309.242188 233.984375 312.039062 236.675781 314.449219 239.042969 C 317.066406 241.617188 319.851562 244.046875 322.464844 246.613281 C 324.507812 248.621094 326.507812 250.511719 328.460938 252.289062 C 331.71875 255.238281 334.699219 258.34375 337.972656 261.304688 C 339.519531 262.703125 341.023438 264.15625 342.476562 265.667969 C 342.535156 265.734375 342.605469 265.757812 342.691406 265.742188 C 342.828125 265.71875 342.894531 265.65625 342.894531 265.554688 C 342.898438 212.363281 342.894531 159.191406 342.882812 106.039062 C 342.882812 105.96875 342.867188 105.90625 342.835938 105.84375 C 342.816406 105.804688 342.804688 105.761719 342.804688 105.714844 Z M 32.390625 265.746094 C 34.585938 263.550781 36.96875 261.234375 39.53125 258.792969 C 62.515625 236.933594 85.214844 215.257812 107.628906 193.765625 C 110.175781 191.320312 112.859375 188.785156 115.671875 186.167969 C 116.222656 185.660156 116.21875 185.15625 115.664062 184.652344 C 114.582031 183.671875 113.554688 182.722656 112.582031 181.8125 C 85.5 156.457031 60.003906 132.703125 36.089844 110.554688 C 34.65625 109.226562 33.285156 107.949219 31.976562 106.71875 C 31.917969 106.664062 31.890625 106.664062 31.890625 106.71875 L 31.785156 265.496094 C 31.785156 266.066406 31.988281 266.148438 32.390625 265.746094 Z M 188.53125 237.390625 C 177.761719 237.878906 169.078125 233.976562 161.203125 226.5625 C 154.035156 219.816406 145.191406 211.53125 134.664062 201.703125 C 134.222656 201.289062 133.746094 200.890625 133.234375 200.5 C 133.082031 200.390625 132.914062 200.339844 132.726562 200.347656 C 132.539062 200.359375 132.375 200.425781 132.238281 200.554688 C 130.914062 201.753906 129.660156 203.105469 128.378906 204.324219 C 100.925781 230.546875 73.738281 256.582031 46.808594 282.429688 C 43.40625 285.699219 40.375 288.546875 37.714844 290.980469 C 36.210938 292.355469 34.796875 293.710938 33.464844 295.046875 C 33.109375 295.410156 33.101562 295.773438 33.449219 296.144531 C 35.578125 298.414062 37.457031 298.257812 40.894531 298.257812 C 139.324219 298.257812 237.757812 298.257812 336.1875 298.257812 C 338.617188 298.257812 339.960938 298.015625 341.253906 296.050781 C 341.554688 295.59375 341.503906 295.179688 341.109375 294.808594 C 309.394531 264.804688 277.683594 234.765625 245.988281 204.691406 C 244.222656 203.015625 242.726562 201.503906 241.5 200.15625 C 241.335938 199.980469 241.136719 199.886719 240.894531 199.875 C 240.65625 199.867188 240.449219 199.941406 240.273438 200.105469 C 231.335938 208.367188 222.464844 216.746094 213.605469 225.078125 C 210.207031 228.273438 207.578125 230.472656 205.714844 231.671875 C 200.230469 235.210938 194.503906 237.117188 188.53125 237.390625 Z M 188.53125 237.390625 " fill-opacity="1" fill-rule="nonzero"/></g></svg>