<svg xmlns="http://www.w3.org/2000/svg" xmlns:xlink="http://www.w3.org/1999/xlink" width="500" zoomAndPan="magnify" viewBox="0 0 375 374.999991" height="500" preserveAspectRatio="xMidYMid meet" version="1.0"><defs><clipPath id="b0e80f218f"><path d="M 20.464844 43 L 354.214844 43 L 354.214844 346.804688 L 20.464844 346.804688 Z M 20.464844 43 " clip-rule="nonzero"/></clipPath><clipPath id="65f36b0012"><path d="M 20.464844 43 L 354.214844 43 L 354.214844 150 L 20.464844 150 Z M 20.464844 43 " clip-rule="nonzero"/></clipPath><clipPath id="c040bad2c5"><path d="M 66 28.054688 L 97 28.054688 L 97 82 L 66 82 Z M 66 28.054688 " clip-rule="nonzero"/></clipPath><clipPath id="406dc0976b"><path d="M 172 28.054688 L 203 28.054688 L 203 82 L 172 82 Z M 172 28.054688 " clip-rule="nonzero"/></clipPath><clipPath id="b076c8d831"><path d="M 278 28.054688 L 309 28.054688 L 309 82 L 278 82 Z M 278 28.054688 " clip-rule="nonzero"/></clipPath></defs><rect x="-37.5" width="450" fill="#ffffff" y="-37.499999" height="449.999989" fill-opacity="1"/><rect x="-37.5" width="450" fill="#ffffff" y="-37.499999" height="449.999989" fill-opacity="1"/><g clip-path="url(#b0e80f218f)"><path fill="#2c9090" d="M 20.464844 88.792969 C 20.464844 63.636719 40.859375 43.242188 66.019531 43.242188 L 308.972656 43.242188 C 334.132812 43.242188 354.527344 63.636719 354.527344 88.792969 L 354.527344 301.378906 C 354.527344 326.539062 334.132812 346.933594 308.972656 346.933594 L 66.019531 346.933594 C 40.859375 346.933594 20.464844 326.539062 20.464844 301.378906 Z M 66.019531 73.609375 C 57.632812 73.609375 50.832031 80.410156 50.832031 88.792969 L 50.832031 301.378906 C 50.832031 309.765625 57.632812 316.566406 66.019531 316.566406 L 308.972656 316.566406 C 317.359375 316.566406 324.160156 309.765625 324.160156 301.378906 L 324.160156 88.792969 C 324.160156 80.410156 317.359375 73.609375 308.972656 73.609375 Z M 66.019531 73.609375 " fill-opacity="1" fill-rule="evenodd"/></g><g clip-path="url(#65f36b0012)"><path fill="#2c9090" d="M 20.464844 88.792969 C 20.464844 63.636719 40.859375 43.242188 66.019531 43.242188 L 308.972656 43.242188 C 334.132812 43.242188 354.527344 63.636719 354.527344 88.792969 L 354.527344 134.347656 C 354.527344 142.734375 347.730469 149.535156 339.34375 149.535156 L 35.648438 149.535156 C 27.261719 149.535156 20.464844 142.734375 20.464844 134.347656 Z M 66.019531 73.609375 C 57.632812 73.609375 50.832031 80.410156 50.832031 88.792969 L 50.832031 119.164062 L 324.160156 119.164062 L 324.160156 88.792969 C 324.160156 80.410156 317.359375 73.609375 308.972656 73.609375 Z M 66.019531 73.609375 " fill-opacity="1" fill-rule="evenodd"/></g><g clip-path="url(#c040bad2c5)"><path fill="#2c9090" d="M 66.019531 28.054688 L 96.386719 28.054688 L 96.386719 81.203125 L 66.019531 81.203125 Z M 66.019531 28.054688 " fill-opacity="1" fill-rule="evenodd"/></g><g clip-path="url(#406dc0976b)"><path fill="#2c9090" d="M 172.3125 28.054688 L 202.679688 28.054688 L 202.679688 81.203125 L 172.3125 81.203125 Z M 172.3125 28.054688 " fill-opacity="1" fill-rule="evenodd"/></g><g clip-path="url(#b076c8d831)"><path fill="#2c9090" d="M 278.605469 28.054688 L 308.972656 28.054688 L 308.972656 81.203125 L 278.605469 81.203125 Z M 278.605469 28.054688 " fill-opacity="1" fill-rule="evenodd"/></g><path fill="#2c9090" d="M 88.796875 179.902344 L 119.164062 179.902344 L 119.164062 210.273438 L 88.796875 210.273438 Z M 88.796875 179.902344 " fill-opacity="1" fill-rule="evenodd"/><path fill="#2c9090" d="M 88.796875 240.640625 L 119.164062 240.640625 L 119.164062 271.011719 L 88.796875 271.011719 Z M 88.796875 240.640625 " fill-opacity="1" fill-rule="evenodd"/><path fill="#2c9090" d="M 172.3125 179.902344 L 202.679688 179.902344 L 202.679688 210.273438 L 172.3125 210.273438 Z M 172.3125 179.902344 " fill-opacity="1" fill-rule="evenodd"/><path fill="#2c9090" d="M 172.3125 240.640625 L 202.679688 240.640625 L 202.679688 271.011719 L 172.3125 271.011719 Z M 172.3125 240.640625 " fill-opacity="1" fill-rule="evenodd"/><path fill="#2c9090" d="M 255.828125 179.902344 L 286.195312 179.902344 L 286.195312 210.273438 L 255.828125 210.273438 Z M 255.828125 179.902344 " fill-opacity="1" fill-rule="evenodd"/><path fill="#2c9090" d="M 255.828125 240.640625 L 286.195312 240.640625 L 286.195312 271.011719 L 255.828125 271.011719 Z M 255.828125 240.640625 " fill-opacity="1" fill-rule="evenodd"/></svg>