<svg xmlns="http://www.w3.org/2000/svg" xmlns:xlink="http://www.w3.org/1999/xlink" width="500" zoomAndPan="magnify" viewBox="0 0 375 374.999991" height="500" preserveAspectRatio="xMidYMid meet" version="1.0"><defs><clipPath id="551a3d4b49"><path d="M 26.199219 27 L 348.699219 27 L 348.699219 362.59375 L 26.199219 362.59375 Z M 26.199219 27 " clip-rule="nonzero"/></clipPath><clipPath id="0f8a68729e"><path d="M 26.199219 21 L 344.199219 21 L 344.199219 351.835938 L 26.199219 351.835938 Z M 26.199219 21 " clip-rule="nonzero"/></clipPath></defs><rect x="-37.5" width="450" fill="#ffffff" y="-37.499999" height="449.999989" fill-opacity="1"/><rect x="-37.5" width="450" fill="#ffffff" y="-37.499999" height="449.999989" fill-opacity="1"/><g clip-path="url(#551a3d4b49)"><path fill="#2c9090" d="M 238.953125 249.789062 L 275.105469 200.25 C 276.082031 198.910156 277.027344 197.550781 277.941406 196.167969 C 278.855469 194.785156 279.738281 193.382812 280.589844 191.960938 C 281.441406 190.535156 282.257812 189.09375 283.042969 187.632812 C 283.828125 186.171875 284.578125 184.695312 285.292969 183.199219 C 286.011719 181.703125 286.691406 180.191406 287.339844 178.667969 C 287.988281 177.140625 288.601562 175.597656 289.175781 174.046875 C 289.753906 172.492188 290.292969 170.921875 290.796875 169.34375 C 291.304688 167.765625 291.773438 166.175781 292.203125 164.574219 C 292.636719 162.972656 293.03125 161.363281 293.390625 159.746094 C 293.746094 158.125 294.066406 156.5 294.351562 154.867188 C 294.632812 153.230469 294.878906 151.59375 295.089844 149.949219 C 295.296875 148.300781 295.46875 146.652344 295.601562 145 C 295.734375 143.347656 295.828125 141.691406 295.882812 140.035156 C 295.941406 138.378906 295.960938 136.722656 295.941406 135.0625 C 295.921875 133.40625 295.863281 131.75 295.769531 130.09375 C 295.671875 128.4375 295.539062 126.785156 295.367188 125.136719 C 295.199219 123.488281 294.988281 121.84375 294.742188 120.203125 C 294.496094 118.5625 294.210938 116.929688 293.890625 115.304688 C 293.570312 113.675781 293.210938 112.058594 292.816406 110.449219 C 292.417969 108.839844 291.988281 107.238281 291.519531 105.648438 C 291.050781 104.058594 290.542969 102.480469 290.003906 100.910156 C 289.460938 99.34375 288.882812 97.789062 288.273438 96.25 C 287.660156 94.710938 287.011719 93.183594 286.328125 91.671875 C 285.644531 90.160156 284.929688 88.667969 284.179688 87.1875 C 283.425781 85.710938 282.640625 84.25 281.824219 82.808594 C 281.003906 81.367188 280.15625 79.945312 279.269531 78.539062 C 278.386719 77.136719 277.472656 75.753906 276.527344 74.394531 C 275.578125 73.03125 274.601562 71.695312 273.59375 70.378906 C 272.585938 69.0625 271.546875 67.769531 270.480469 66.5 C 269.410156 65.230469 268.316406 63.988281 267.191406 62.769531 C 266.066406 61.550781 264.914062 60.359375 263.734375 59.195312 C 262.554688 58.027344 261.351562 56.890625 260.121094 55.78125 C 258.886719 54.667969 257.632812 53.589844 256.351562 52.535156 C 255.070312 51.484375 253.765625 50.460938 252.4375 49.46875 C 251.109375 48.472656 249.757812 47.511719 248.386719 46.582031 C 247.015625 45.648438 245.621094 44.75 244.210938 43.882812 C 242.796875 43.015625 241.363281 42.183594 239.914062 41.382812 C 238.460938 40.582031 236.992188 39.8125 235.503906 39.078125 C 234.019531 38.34375 232.515625 37.644531 230.996094 36.980469 C 229.476562 36.316406 227.945312 35.683594 226.398438 35.089844 C 224.847656 34.496094 223.289062 33.9375 221.714844 33.414062 C 220.140625 32.890625 218.558594 32.402344 216.960938 31.953125 C 215.367188 31.503906 213.761719 31.089844 212.144531 30.710938 C 210.53125 30.335938 208.910156 29.996094 207.277344 29.691406 C 205.648438 29.390625 204.011719 29.125 202.371094 28.898438 C 200.726562 28.671875 199.082031 28.480469 197.429688 28.328125 C 195.777344 28.175781 194.125 28.0625 192.46875 27.988281 C 190.8125 27.910156 189.15625 27.875 187.496094 27.875 C 185.839844 27.875 184.179688 27.910156 182.523438 27.988281 C 180.867188 28.0625 179.214844 28.175781 177.5625 28.328125 C 175.914062 28.480469 174.265625 28.671875 172.625 28.898438 C 170.980469 29.125 169.34375 29.390625 167.714844 29.691406 C 166.085938 29.996094 164.460938 30.335938 162.847656 30.710938 C 161.230469 31.089844 159.628906 31.503906 158.03125 31.953125 C 156.4375 32.402344 154.851562 32.890625 153.277344 33.414062 C 151.703125 33.9375 150.144531 34.496094 148.597656 35.089844 C 147.046875 35.683594 145.515625 36.316406 143.996094 36.980469 C 142.476562 37.644531 140.976562 38.34375 139.488281 39.078125 C 138 39.8125 136.53125 40.582031 135.082031 41.382812 C 133.628906 42.183594 132.195312 43.015625 130.78125 43.882812 C 129.371094 44.75 127.976562 45.648438 126.605469 46.582031 C 125.234375 47.511719 123.882812 48.472656 122.554688 49.46875 C 121.226562 50.460938 119.921875 51.484375 118.640625 52.535156 C 117.359375 53.589844 116.105469 54.667969 114.871094 55.78125 C 113.640625 56.890625 112.4375 58.027344 111.257812 59.195312 C 110.078125 60.359375 108.925781 61.550781 107.800781 62.769531 C 106.675781 63.988281 105.582031 65.230469 104.511719 66.5 C 103.445312 67.769531 102.40625 69.0625 101.398438 70.378906 C 100.390625 71.695312 99.414062 73.03125 98.46875 74.394531 C 97.519531 75.753906 96.605469 77.136719 95.722656 78.539062 C 94.839844 79.945312 93.988281 81.367188 93.167969 82.808594 C 92.351562 84.25 91.566406 85.710938 90.816406 87.1875 C 90.0625 88.667969 89.347656 90.160156 88.664062 91.671875 C 87.980469 93.183594 87.332031 94.710938 86.722656 96.25 C 86.109375 97.789062 85.53125 99.34375 84.988281 100.910156 C 84.449219 102.480469 83.941406 104.058594 83.472656 105.648438 C 83.003906 107.238281 82.574219 108.839844 82.175781 110.449219 C 81.78125 112.058594 81.421875 113.675781 81.101562 115.304688 C 80.78125 116.929688 80.496094 118.5625 80.25 120.203125 C 80.003906 121.84375 79.792969 123.488281 79.625 125.136719 C 79.453125 126.785156 79.320312 128.4375 79.222656 130.09375 C 79.128906 131.75 79.070312 133.40625 79.050781 135.0625 C 79.03125 136.722656 79.050781 138.378906 79.109375 140.035156 C 79.164062 141.691406 79.261719 143.347656 79.394531 145 C 79.523438 146.652344 79.695312 148.300781 79.902344 149.949219 C 80.113281 151.59375 80.359375 153.230469 80.640625 154.867188 C 80.925781 156.5 81.246094 158.125 81.605469 159.746094 C 81.960938 161.363281 82.355469 162.972656 82.789062 164.574219 C 83.222656 166.175781 83.6875 167.765625 84.195312 169.34375 C 84.699219 170.921875 85.238281 172.492188 85.816406 174.046875 C 86.394531 175.597656 87.003906 177.140625 87.652344 178.667969 C 88.300781 180.191406 88.980469 181.703125 89.699219 183.199219 C 90.414062 184.695312 91.164062 186.171875 91.949219 187.632812 C 92.734375 189.09375 93.550781 190.535156 94.402344 191.960938 C 95.253906 193.382812 96.136719 194.785156 97.050781 196.167969 C 97.964844 197.550781 98.910156 198.910156 99.890625 200.25 L 136.050781 249.804688 C 75.976562 256.488281 26.199219 275.085938 26.199219 304.8125 C 26.199219 342.773438 107.339844 362.636719 187.496094 362.636719 C 267.648438 362.636719 348.792969 342.773438 348.792969 304.8125 C 348.792969 275.085938 299.027344 256.472656 238.953125 249.789062 Z M 114.640625 189.488281 C 113.828125 188.371094 113.039062 187.242188 112.277344 186.089844 C 111.515625 184.941406 110.785156 183.773438 110.074219 182.589844 C 109.367188 181.40625 108.6875 180.207031 108.035156 178.992188 C 107.382812 177.777344 106.757812 176.550781 106.164062 175.304688 C 105.566406 174.0625 105 172.804688 104.460938 171.535156 C 103.921875 170.265625 103.414062 168.984375 102.933594 167.691406 C 102.457031 166.398438 102.003906 165.097656 101.585938 163.785156 C 101.164062 162.46875 100.777344 161.148438 100.417969 159.816406 C 100.058594 158.484375 99.730469 157.144531 99.429688 155.800781 C 99.132812 154.453125 98.867188 153.101562 98.632812 151.742188 C 98.394531 150.382812 98.191406 149.019531 98.019531 147.652344 C 97.84375 146.285156 97.703125 144.914062 97.59375 143.539062 C 97.480469 142.164062 97.402344 140.789062 97.355469 139.410156 C 97.308594 138.03125 97.292969 136.652344 97.308594 135.273438 C 97.324219 133.894531 97.371094 132.515625 97.453125 131.140625 C 97.53125 129.765625 97.640625 128.390625 97.785156 127.019531 C 97.925781 125.648438 98.101562 124.28125 98.304688 122.914062 C 98.511719 121.550781 98.746094 120.195312 99.011719 118.839844 C 99.28125 117.488281 99.578125 116.140625 99.90625 114.804688 C 100.238281 113.464844 100.597656 112.132812 100.984375 110.8125 C 101.375 109.488281 101.796875 108.175781 102.246094 106.871094 C 102.695312 105.570312 103.175781 104.277344 103.6875 102.996094 C 104.195312 101.714844 104.734375 100.445312 105.300781 99.1875 C 105.871094 97.929688 106.464844 96.6875 107.089844 95.460938 C 107.714844 94.230469 108.367188 93.015625 109.046875 91.816406 C 109.730469 90.617188 110.4375 89.433594 111.171875 88.265625 C 111.90625 87.101562 112.667969 85.949219 113.453125 84.820312 C 114.242188 83.6875 115.054688 82.574219 115.894531 81.476562 C 116.730469 80.382812 117.59375 79.308594 118.484375 78.253906 C 119.371094 77.199219 120.28125 76.164062 121.21875 75.152344 C 122.152344 74.136719 123.109375 73.144531 124.089844 72.175781 C 125.070312 71.207031 126.074219 70.261719 127.097656 69.335938 C 128.121094 68.414062 129.167969 67.515625 130.230469 66.640625 C 131.296875 65.765625 132.382812 64.914062 133.488281 64.085938 C 134.589844 63.261719 135.714844 62.460938 136.855469 61.6875 C 137.996094 60.914062 139.15625 60.164062 140.328125 59.445312 C 141.503906 58.722656 142.695312 58.03125 143.902344 57.363281 C 145.109375 56.695312 146.332031 56.058594 147.570312 55.449219 C 148.804688 54.835938 150.054688 54.257812 151.316406 53.703125 C 152.582031 53.148438 153.855469 52.625 155.144531 52.132812 C 156.429688 51.636719 157.730469 51.171875 159.039062 50.738281 C 160.34375 50.300781 161.664062 49.898438 162.992188 49.523438 C 164.316406 49.148438 165.652344 48.804688 166.996094 48.488281 C 168.339844 48.175781 169.6875 47.894531 171.042969 47.644531 C 172.398438 47.390625 173.761719 47.171875 175.125 46.980469 C 176.492188 46.792969 177.859375 46.636719 179.234375 46.507812 C 180.609375 46.382812 181.984375 46.289062 183.359375 46.222656 C 184.738281 46.160156 186.117188 46.128906 187.496094 46.128906 C 188.875 46.128906 190.253906 46.160156 191.628906 46.222656 C 193.007812 46.289062 194.382812 46.382812 195.753906 46.507812 C 197.128906 46.636719 198.496094 46.792969 199.863281 46.980469 C 201.230469 47.171875 202.589844 47.390625 203.945312 47.644531 C 205.300781 47.894531 206.652344 48.175781 207.996094 48.488281 C 209.335938 48.804688 210.671875 49.148438 212 49.523438 C 213.328125 49.898438 214.644531 50.300781 215.953125 50.738281 C 217.261719 51.171875 218.558594 51.636719 219.847656 52.132812 C 221.132812 52.625 222.410156 53.148438 223.671875 53.703125 C 224.933594 54.257812 226.183594 54.835938 227.421875 55.449219 C 228.65625 56.058594 229.878906 56.695312 231.085938 57.363281 C 232.292969 58.03125 233.484375 58.722656 234.660156 59.445312 C 235.835938 60.164062 236.992188 60.914062 238.132812 61.6875 C 239.277344 62.460938 240.398438 63.261719 241.503906 64.085938 C 242.605469 64.914062 243.691406 65.765625 244.757812 66.640625 C 245.824219 67.515625 246.867188 68.414062 247.890625 69.335938 C 248.914062 70.261719 249.917969 71.207031 250.898438 72.175781 C 251.878906 73.144531 252.835938 74.136719 253.773438 75.152344 C 254.707031 76.164062 255.621094 77.199219 256.507812 78.253906 C 257.394531 79.308594 258.257812 80.382812 259.097656 81.476562 C 259.933594 82.574219 260.746094 83.6875 261.535156 84.816406 C 262.324219 85.949219 263.082031 87.101562 263.820312 88.265625 C 264.554688 89.433594 265.261719 90.617188 265.941406 91.816406 C 266.621094 93.015625 267.273438 94.230469 267.898438 95.460938 C 268.523438 96.6875 269.121094 97.929688 269.6875 99.1875 C 270.253906 100.445312 270.792969 101.714844 271.304688 102.996094 C 271.8125 104.277344 272.292969 105.570312 272.742188 106.871094 C 273.195312 108.175781 273.613281 109.488281 274.003906 110.8125 C 274.394531 112.132812 274.753906 113.464844 275.082031 114.804688 C 275.410156 116.140625 275.710938 117.488281 275.976562 118.839844 C 276.242188 120.195312 276.480469 121.550781 276.683594 122.914062 C 276.890625 124.28125 277.0625 125.648438 277.207031 127.019531 C 277.347656 128.390625 277.457031 129.765625 277.539062 131.140625 C 277.617188 132.515625 277.664062 133.894531 277.679688 135.273438 C 277.695312 136.652344 277.679688 138.03125 277.632812 139.410156 C 277.585938 140.789062 277.507812 142.164062 277.398438 143.539062 C 277.285156 144.914062 277.144531 146.285156 276.972656 147.652344 C 276.796875 149.019531 276.59375 150.382812 276.359375 151.742188 C 276.121094 153.101562 275.855469 154.453125 275.558594 155.800781 C 275.261719 157.144531 274.933594 158.484375 274.574219 159.816406 C 274.214844 161.148438 273.824219 162.46875 273.402344 163.785156 C 272.984375 165.097656 272.535156 166.398438 272.054688 167.691406 C 271.574219 168.984375 271.066406 170.265625 270.527344 171.535156 C 269.988281 172.804688 269.421875 174.0625 268.824219 175.304688 C 268.230469 176.550781 267.605469 177.777344 266.953125 178.992188 C 266.300781 180.207031 265.621094 181.40625 264.914062 182.589844 C 264.207031 183.773438 263.472656 184.941406 262.710938 186.089844 C 261.949219 187.242188 261.164062 188.371094 260.351562 189.488281 L 187.496094 289.324219 Z M 187.496094 344.375 C 100.179688 344.375 44.457031 320.945312 44.457031 304.8125 C 44.457031 291.238281 84.015625 272.546875 148.558594 266.949219 L 180.117188 310.195312 C 180.328125 310.484375 180.558594 310.761719 180.800781 311.023438 C 181.042969 311.285156 181.300781 311.53125 181.574219 311.765625 C 181.847656 311.996094 182.132812 312.210938 182.433594 312.410156 C 182.730469 312.609375 183.039062 312.789062 183.359375 312.953125 C 183.675781 313.113281 184.003906 313.257812 184.339844 313.382812 C 184.675781 313.503906 185.019531 313.609375 185.367188 313.691406 C 185.714844 313.773438 186.066406 313.839844 186.425781 313.878906 C 186.78125 313.921875 187.136719 313.941406 187.496094 313.941406 C 187.851562 313.941406 188.210938 313.921875 188.566406 313.878906 C 188.921875 313.835938 189.273438 313.773438 189.621094 313.691406 C 189.96875 313.609375 190.3125 313.503906 190.648438 313.382812 C 190.984375 313.257812 191.3125 313.113281 191.632812 312.953125 C 191.949219 312.789062 192.261719 312.609375 192.558594 312.410156 C 192.855469 312.210938 193.140625 311.996094 193.414062 311.765625 C 193.6875 311.53125 193.945312 311.285156 194.1875 311.023438 C 194.433594 310.761719 194.660156 310.484375 194.871094 310.195312 L 226.429688 266.949219 C 290.988281 272.539062 330.53125 291.238281 330.53125 304.8125 C 330.53125 320.945312 274.808594 344.375 187.496094 344.375 Z M 187.496094 344.375 " fill-opacity="1" fill-rule="nonzero"/></g><path fill="#2c9090" d="M 240.710938 136.324219 C 240.710938 134.582031 240.625 132.84375 240.457031 131.109375 C 240.285156 129.375 240.027344 127.652344 239.6875 125.941406 C 239.347656 124.234375 238.925781 122.542969 238.421875 120.875 C 237.914062 119.207031 237.328125 117.570312 236.660156 115.960938 C 235.996094 114.347656 235.25 112.773438 234.429688 111.238281 C 233.605469 109.699219 232.710938 108.207031 231.742188 106.757812 C 230.777344 105.308594 229.738281 103.910156 228.632812 102.5625 C 227.527344 101.21875 226.359375 99.925781 225.125 98.695312 C 223.894531 97.460938 222.605469 96.292969 221.257812 95.1875 C 219.910156 94.082031 218.511719 93.042969 217.0625 92.078125 C 215.613281 91.109375 214.121094 90.214844 212.582031 89.390625 C 211.046875 88.570312 209.472656 87.824219 207.863281 87.160156 C 206.253906 86.492188 204.613281 85.90625 202.945312 85.398438 C 201.277344 84.894531 199.589844 84.46875 197.878906 84.128906 C 196.171875 83.789062 194.449219 83.535156 192.714844 83.363281 C 190.980469 83.191406 189.242188 83.109375 187.496094 83.109375 C 185.753906 83.109375 184.015625 83.191406 182.28125 83.363281 C 180.546875 83.535156 178.824219 83.789062 177.117188 84.128906 C 175.40625 84.46875 173.71875 84.894531 172.050781 85.398438 C 170.382812 85.90625 168.742188 86.492188 167.132812 87.15625 C 165.523438 87.824219 163.949219 88.570312 162.414062 89.390625 C 160.875 90.210938 159.382812 91.105469 157.933594 92.074219 C 156.484375 93.042969 155.085938 94.082031 153.738281 95.1875 C 152.390625 96.292969 151.101562 97.460938 149.867188 98.691406 C 148.636719 99.925781 147.46875 101.214844 146.363281 102.5625 C 145.257812 103.910156 144.21875 105.308594 143.25 106.757812 C 142.28125 108.207031 141.386719 109.699219 140.566406 111.234375 C 139.746094 112.773438 139 114.347656 138.332031 115.957031 C 137.667969 117.566406 137.078125 119.207031 136.574219 120.875 C 136.066406 122.542969 135.644531 124.230469 135.304688 125.9375 C 134.964844 127.648438 134.710938 129.371094 134.539062 131.105469 C 134.367188 132.839844 134.28125 134.578125 134.28125 136.320312 C 134.28125 138.0625 134.367188 139.800781 134.539062 141.535156 C 134.707031 143.269531 134.964844 144.992188 135.304688 146.703125 C 135.644531 148.410156 136.066406 150.101562 136.574219 151.769531 C 137.078125 153.4375 137.664062 155.074219 138.332031 156.683594 C 139 158.296875 139.742188 159.871094 140.566406 161.40625 C 141.386719 162.945312 142.28125 164.4375 143.25 165.886719 C 144.21875 167.335938 145.253906 168.734375 146.359375 170.082031 C 147.464844 171.425781 148.632812 172.71875 149.867188 173.949219 C 151.097656 175.183594 152.390625 176.351562 153.734375 177.457031 C 155.082031 178.5625 156.480469 179.601562 157.929688 180.566406 C 159.378906 181.535156 160.871094 182.429688 162.410156 183.253906 C 163.945312 184.074219 165.519531 184.820312 167.128906 185.484375 C 168.742188 186.152344 170.378906 186.738281 172.046875 187.246094 C 173.714844 187.75 175.402344 188.175781 177.113281 188.515625 C 178.824219 188.855469 180.542969 189.109375 182.277344 189.28125 C 184.011719 189.453125 185.753906 189.539062 187.496094 189.539062 C 189.238281 189.535156 190.976562 189.449219 192.707031 189.277344 C 194.441406 189.101562 196.164062 188.847656 197.871094 188.503906 C 199.582031 188.164062 201.269531 187.738281 202.9375 187.234375 C 204.601562 186.726562 206.242188 186.136719 207.851562 185.472656 C 209.460938 184.804688 211.03125 184.058594 212.570312 183.238281 C 214.105469 182.414062 215.597656 181.519531 217.046875 180.550781 C 218.492188 179.582031 219.890625 178.546875 221.238281 177.441406 C 222.585938 176.335938 223.875 175.167969 225.105469 173.933594 C 226.339844 172.703125 227.507812 171.414062 228.613281 170.066406 C 229.71875 168.71875 230.753906 167.324219 231.722656 165.875 C 232.691406 164.425781 233.585938 162.933594 234.410156 161.398438 C 235.230469 159.859375 235.976562 158.289062 236.644531 156.679688 C 237.3125 155.070312 237.898438 153.429688 238.40625 151.765625 C 238.914062 150.097656 239.335938 148.410156 239.679688 146.699219 C 240.019531 144.992188 240.277344 143.269531 240.449219 141.539062 C 240.621094 139.804688 240.710938 138.066406 240.710938 136.324219 Z M 152.542969 136.324219 C 152.542969 135.179688 152.597656 134.035156 152.710938 132.898438 C 152.820312 131.757812 152.988281 130.625 153.210938 129.503906 C 153.4375 128.382812 153.714844 127.273438 154.046875 126.175781 C 154.378906 125.082031 154.761719 124.003906 155.203125 122.945312 C 155.640625 121.890625 156.128906 120.855469 156.667969 119.84375 C 157.207031 118.835938 157.796875 117.855469 158.433594 116.902344 C 159.066406 115.953125 159.75 115.03125 160.476562 114.148438 C 161.203125 113.261719 161.96875 112.414062 162.777344 111.605469 C 163.589844 110.796875 164.4375 110.027344 165.320312 109.300781 C 166.207031 108.574219 167.125 107.894531 168.074219 107.257812 C 169.027344 106.621094 170.007812 106.035156 171.019531 105.496094 C 172.027344 104.957031 173.0625 104.464844 174.121094 104.027344 C 175.175781 103.589844 176.253906 103.207031 177.347656 102.871094 C 178.445312 102.539062 179.554688 102.261719 180.675781 102.039062 C 181.800781 101.816406 182.929688 101.648438 184.070312 101.535156 C 185.210938 101.421875 186.351562 101.367188 187.496094 101.367188 C 188.640625 101.367188 189.78125 101.421875 190.921875 101.535156 C 192.0625 101.648438 193.191406 101.816406 194.316406 102.039062 C 195.4375 102.261719 196.546875 102.539062 197.644531 102.871094 C 198.738281 103.203125 199.816406 103.589844 200.871094 104.027344 C 201.929688 104.464844 202.964844 104.957031 203.972656 105.496094 C 204.984375 106.035156 205.964844 106.621094 206.914062 107.257812 C 207.867188 107.894531 208.785156 108.574219 209.671875 109.300781 C 210.554688 110.027344 211.402344 110.796875 212.210938 111.605469 C 213.023438 112.414062 213.789062 113.261719 214.515625 114.148438 C 215.242188 115.03125 215.921875 115.949219 216.558594 116.902344 C 217.195312 117.855469 217.785156 118.835938 218.324219 119.84375 C 218.863281 120.855469 219.351562 121.886719 219.789062 122.945312 C 220.226562 124.003906 220.613281 125.078125 220.945312 126.175781 C 221.277344 127.269531 221.554688 128.378906 221.777344 129.503906 C 222.003906 130.625 222.171875 131.757812 222.28125 132.894531 C 222.394531 134.035156 222.449219 135.175781 222.449219 136.324219 C 222.449219 137.46875 222.394531 138.609375 222.28125 139.75 C 222.171875 140.886719 222.003906 142.019531 221.777344 143.140625 C 221.554688 144.265625 221.277344 145.375 220.945312 146.46875 C 220.613281 147.566406 220.226562 148.640625 219.789062 149.699219 C 219.351562 150.757812 218.863281 151.789062 218.324219 152.800781 C 217.785156 153.808594 217.195312 154.789062 216.558594 155.742188 C 215.921875 156.695312 215.242188 157.613281 214.515625 158.496094 C 213.789062 159.382812 213.023438 160.230469 212.210938 161.039062 C 211.402344 161.847656 210.554688 162.617188 209.671875 163.34375 C 208.785156 164.070312 207.867188 164.75 206.914062 165.386719 C 205.964844 166.023438 204.984375 166.609375 203.972656 167.148438 C 202.964844 167.691406 201.929688 168.179688 200.871094 168.617188 C 199.8125 169.054688 198.738281 169.441406 197.640625 169.773438 C 196.546875 170.105469 195.4375 170.382812 194.3125 170.605469 C 193.191406 170.828125 192.058594 170.996094 190.921875 171.109375 C 189.78125 171.222656 188.640625 171.277344 187.496094 171.277344 C 186.351562 171.277344 185.207031 171.21875 184.070312 171.105469 C 182.929688 170.992188 181.800781 170.824219 180.679688 170.597656 C 179.554688 170.375 178.449219 170.097656 177.351562 169.761719 C 176.257812 169.429688 175.183594 169.042969 174.125 168.605469 C 173.066406 168.167969 172.035156 167.679688 171.027344 167.136719 C 170.015625 166.597656 169.035156 166.011719 168.085938 165.375 C 167.132812 164.738281 166.214844 164.058594 165.332031 163.332031 C 164.445312 162.605469 163.601562 161.835938 162.789062 161.027344 C 161.980469 160.21875 161.214844 159.371094 160.488281 158.488281 C 159.761719 157.601562 159.078125 156.683594 158.445312 155.734375 C 157.808594 154.78125 157.21875 153.800781 156.679688 152.792969 C 156.140625 151.785156 155.652344 150.75 155.210938 149.695312 C 154.773438 148.636719 154.386719 147.5625 154.054688 146.464844 C 153.722656 145.371094 153.445312 144.261719 153.21875 143.140625 C 152.996094 142.019531 152.828125 140.886719 152.714844 139.75 C 152.601562 138.609375 152.542969 137.46875 152.542969 136.324219 Z M 152.542969 136.324219 " fill-opacity="1" fill-rule="nonzero"/><g clip-path="url(#0f8a68729e)"><path fill="#2c9090" d="M 236.039062 240.363281 L 271.695312 191.5 C 272.660156 190.179688 273.59375 188.835938 274.496094 187.472656 C 275.398438 186.109375 276.265625 184.726562 277.105469 183.320312 C 277.945312 181.917969 278.75 180.496094 279.523438 179.054688 C 280.300781 177.613281 281.039062 176.15625 281.746094 174.683594 C 282.453125 173.207031 283.125 171.71875 283.765625 170.210938 C 284.402344 168.707031 285.007812 167.1875 285.574219 165.652344 C 286.144531 164.121094 286.675781 162.574219 287.175781 161.015625 C 287.671875 159.457031 288.136719 157.890625 288.5625 156.3125 C 288.988281 154.734375 289.375 153.144531 289.730469 151.546875 C 290.082031 149.953125 290.398438 148.347656 290.679688 146.734375 C 290.957031 145.125 291.199219 143.507812 291.40625 141.886719 C 291.613281 140.261719 291.78125 138.636719 291.910156 137.007812 C 292.042969 135.375 292.132812 133.746094 292.191406 132.109375 C 292.246094 130.476562 292.265625 128.839844 292.246094 127.207031 C 292.226562 125.570312 292.171875 123.9375 292.078125 122.304688 C 291.984375 120.671875 291.851562 119.042969 291.683594 117.414062 C 291.515625 115.789062 291.308594 114.167969 291.066406 112.550781 C 290.820312 110.933594 290.542969 109.320312 290.226562 107.714844 C 289.90625 106.113281 289.554688 104.515625 289.164062 102.929688 C 288.773438 101.339844 288.347656 99.761719 287.886719 98.191406 C 287.421875 96.625 286.925781 95.066406 286.390625 93.519531 C 285.855469 91.976562 285.285156 90.441406 284.683594 88.921875 C 284.078125 87.402344 283.4375 85.898438 282.765625 84.410156 C 282.09375 82.917969 281.386719 81.445312 280.644531 79.984375 C 279.902344 78.527344 279.128906 77.089844 278.324219 75.664062 C 277.515625 74.242188 276.675781 72.839844 275.804688 71.457031 C 274.933594 70.074219 274.03125 68.710938 273.097656 67.367188 C 272.164062 66.023438 271.199219 64.703125 270.203125 63.40625 C 269.210938 62.105469 268.1875 60.832031 267.132812 59.582031 C 266.082031 58.328125 265 57.101562 263.890625 55.902344 C 262.78125 54.699219 261.644531 53.523438 260.484375 52.375 C 259.320312 51.226562 258.128906 50.101562 256.917969 49.007812 C 255.703125 47.914062 254.460938 46.847656 253.199219 45.808594 C 251.933594 44.769531 250.648438 43.761719 249.339844 42.78125 C 248.03125 41.800781 246.699219 40.851562 245.34375 39.933594 C 243.992188 39.015625 242.617188 38.128906 241.222656 37.273438 C 239.828125 36.417969 238.417969 35.597656 236.984375 34.804688 C 235.554688 34.015625 234.105469 33.257812 232.636719 32.535156 C 231.171875 31.8125 229.691406 31.121094 228.191406 30.464844 C 226.695312 29.808594 225.179688 29.1875 223.65625 28.601562 C 222.128906 28.015625 220.589844 27.464844 219.039062 26.949219 C 217.484375 26.429688 215.921875 25.953125 214.347656 25.507812 C 212.773438 25.0625 211.191406 24.65625 209.597656 24.28125 C 208.007812 23.910156 206.40625 23.578125 204.796875 23.277344 C 203.191406 22.980469 201.578125 22.71875 199.957031 22.496094 C 198.335938 22.269531 196.710938 22.082031 195.085938 21.933594 C 193.457031 21.785156 191.824219 21.671875 190.191406 21.597656 C 188.558594 21.519531 186.921875 21.484375 185.289062 21.484375 C 183.652344 21.484375 182.015625 21.519531 180.382812 21.597656 C 178.75 21.671875 177.117188 21.785156 175.492188 21.933594 C 173.863281 22.082031 172.238281 22.269531 170.617188 22.496094 C 169 22.71875 167.382812 22.980469 165.777344 23.277344 C 164.167969 23.578125 162.566406 23.910156 160.976562 24.28125 C 159.382812 24.65625 157.800781 25.0625 156.226562 25.507812 C 154.652344 25.953125 153.089844 26.429688 151.539062 26.949219 C 149.984375 27.464844 148.445312 28.015625 146.917969 28.601562 C 145.394531 29.1875 143.882812 29.808594 142.382812 30.464844 C 140.886719 31.121094 139.402344 31.8125 137.9375 32.535156 C 136.46875 33.257812 135.019531 34.015625 133.589844 34.804688 C 132.15625 35.597656 130.746094 36.417969 129.351562 37.273438 C 127.957031 38.128906 126.582031 39.015625 125.230469 39.933594 C 123.875 40.851562 122.546875 41.800781 121.234375 42.78125 C 119.925781 43.761719 118.640625 44.769531 117.375 45.808594 C 116.113281 46.847656 114.875 47.914062 113.660156 49.007812 C 112.445312 50.101562 111.253906 51.226562 110.09375 52.375 C 108.929688 53.523438 107.792969 54.699219 106.683594 55.902344 C 105.574219 57.101562 104.492188 58.328125 103.441406 59.582031 C 102.386719 60.832031 101.363281 62.105469 100.371094 63.40625 C 99.375 64.703125 98.410156 66.023438 97.476562 67.367188 C 96.542969 68.710938 95.640625 70.074219 94.769531 71.457031 C 93.898438 72.839844 93.058594 74.242188 92.25 75.664062 C 91.445312 77.089844 90.671875 78.527344 89.929688 79.984375 C 89.1875 81.445312 88.480469 82.917969 87.808594 84.410156 C 87.136719 85.898438 86.496094 87.402344 85.890625 88.921875 C 85.289062 90.441406 84.71875 91.976562 84.183594 93.519531 C 83.652344 95.066406 83.152344 96.625 82.691406 98.191406 C 82.226562 99.761719 81.800781 101.339844 81.410156 102.929688 C 81.019531 104.515625 80.667969 106.113281 80.351562 107.714844 C 80.03125 109.320312 79.753906 110.933594 79.511719 112.550781 C 79.265625 114.167969 79.0625 115.789062 78.890625 117.414062 C 78.722656 119.042969 78.59375 120.671875 78.5 122.304688 C 78.402344 123.9375 78.347656 125.570312 78.328125 127.207031 C 78.308594 128.839844 78.328125 130.476562 78.382812 132.109375 C 78.441406 133.746094 78.535156 135.375 78.664062 137.007812 C 78.796875 138.636719 78.964844 140.261719 79.167969 141.886719 C 79.375 143.507812 79.617188 145.125 79.894531 146.734375 C 80.175781 148.347656 80.492188 149.953125 80.84375 151.546875 C 81.199219 153.144531 81.585938 154.734375 82.015625 156.3125 C 82.441406 157.890625 82.902344 159.457031 83.398438 161.015625 C 83.898438 162.574219 84.429688 164.121094 85 165.652344 C 85.570312 167.1875 86.171875 168.707031 86.8125 170.210938 C 87.449219 171.71875 88.121094 173.207031 88.828125 174.683594 C 89.535156 176.15625 90.277344 177.613281 91.050781 179.054688 C 91.824219 180.496094 92.628906 181.917969 93.46875 183.320312 C 94.308594 184.726562 95.179688 186.109375 96.082031 187.472656 C 96.984375 188.835938 97.914062 190.179688 98.878906 191.5 L 134.546875 240.375 C 75.292969 246.96875 26.199219 265.3125 26.199219 294.628906 C 26.199219 332.070312 106.230469 351.660156 185.285156 351.660156 C 264.34375 351.660156 344.375 332.070312 344.375 294.628906 C 344.375 265.3125 295.292969 246.949219 236.039062 240.363281 Z M 113.429688 180.882812 C 112.625 179.785156 111.851562 178.667969 111.097656 177.535156 C 110.347656 176.398438 109.625 175.25 108.925781 174.082031 C 108.230469 172.914062 107.558594 171.730469 106.914062 170.535156 C 106.273438 169.335938 105.65625 168.121094 105.070312 166.894531 C 104.480469 165.671875 103.921875 164.429688 103.390625 163.179688 C 102.859375 161.925781 102.355469 160.664062 101.882812 159.386719 C 101.410156 158.113281 100.96875 156.828125 100.554688 155.53125 C 100.140625 154.238281 99.753906 152.933594 99.402344 151.617188 C 99.046875 150.304688 98.722656 148.984375 98.429688 147.65625 C 98.136719 146.328125 97.871094 144.996094 97.640625 143.65625 C 97.40625 142.316406 97.203125 140.972656 97.035156 139.621094 C 96.863281 138.273438 96.722656 136.921875 96.613281 135.5625 C 96.503906 134.207031 96.429688 132.851562 96.382812 131.492188 C 96.335938 130.132812 96.320312 128.773438 96.335938 127.414062 C 96.351562 126.054688 96.398438 124.695312 96.476562 123.335938 C 96.554688 121.980469 96.664062 120.625 96.804688 119.269531 C 96.945312 117.917969 97.117188 116.570312 97.316406 115.222656 C 97.519531 113.878906 97.753906 112.539062 98.015625 111.207031 C 98.28125 109.871094 98.574219 108.542969 98.898438 107.222656 C 99.222656 105.902344 99.578125 104.589844 99.960938 103.285156 C 100.347656 101.980469 100.761719 100.683594 101.203125 99.398438 C 101.648438 98.113281 102.121094 96.839844 102.625 95.574219 C 103.128906 94.3125 103.660156 93.0625 104.21875 91.820312 C 104.777344 90.582031 105.367188 89.355469 105.984375 88.144531 C 106.597656 86.929688 107.242188 85.734375 107.914062 84.550781 C 108.585938 83.367188 109.28125 82.199219 110.007812 81.050781 C 110.730469 79.898438 111.484375 78.765625 112.257812 77.648438 C 113.035156 76.53125 113.835938 75.433594 114.664062 74.355469 C 115.492188 73.273438 116.34375 72.214844 117.21875 71.171875 C 118.09375 70.132812 118.992188 69.113281 119.914062 68.113281 C 120.839844 67.113281 121.78125 66.136719 122.75 65.179688 C 123.71875 64.222656 124.707031 63.289062 125.714844 62.378906 C 126.726562 61.46875 127.757812 60.582031 128.808594 59.71875 C 129.859375 58.855469 130.929688 58.015625 132.019531 57.203125 C 133.105469 56.386719 134.214844 55.597656 135.339844 54.835938 C 136.464844 54.070312 137.605469 53.332031 138.765625 52.621094 C 139.925781 51.910156 141.101562 51.226562 142.292969 50.570312 C 143.480469 49.914062 144.6875 49.28125 145.90625 48.679688 C 147.125 48.078125 148.359375 47.503906 149.605469 46.960938 C 150.851562 46.414062 152.109375 45.898438 153.378906 45.410156 C 154.648438 44.921875 155.925781 44.460938 157.21875 44.035156 C 158.507812 43.605469 159.808594 43.207031 161.117188 42.835938 C 162.425781 42.464844 163.742188 42.125 165.066406 41.816406 C 166.390625 41.507812 167.722656 41.230469 169.058594 40.980469 C 170.398438 40.734375 171.738281 40.515625 173.085938 40.328125 C 174.433594 40.144531 175.785156 39.988281 177.136719 39.863281 C 178.492188 39.738281 179.847656 39.644531 181.207031 39.582031 C 182.566406 39.519531 183.925781 39.488281 185.285156 39.488281 C 186.644531 39.488281 188.003906 39.519531 189.363281 39.582031 C 190.722656 39.644531 192.078125 39.738281 193.433594 39.863281 C 194.789062 39.988281 196.136719 40.144531 197.484375 40.328125 C 198.832031 40.515625 200.175781 40.734375 201.511719 40.980469 C 202.847656 41.230469 204.179688 41.507812 205.503906 41.816406 C 206.828125 42.125 208.144531 42.464844 209.453125 42.835938 C 210.761719 43.207031 212.0625 43.605469 213.355469 44.035156 C 214.644531 44.460938 215.925781 44.921875 217.195312 45.410156 C 218.464844 45.898438 219.722656 46.414062 220.96875 46.960938 C 222.210938 47.503906 223.445312 48.078125 224.664062 48.679688 C 225.882812 49.28125 227.089844 49.914062 228.28125 50.570312 C 229.472656 51.226562 230.644531 51.910156 231.804688 52.621094 C 232.964844 53.332031 234.105469 54.070312 235.230469 54.835938 C 236.359375 55.597656 237.464844 56.386719 238.554688 57.203125 C 239.644531 58.015625 240.714844 58.855469 241.765625 59.71875 C 242.816406 60.582031 243.84375 61.46875 244.855469 62.378906 C 245.867188 63.289062 246.855469 64.222656 247.820312 65.179688 C 248.789062 66.136719 249.734375 67.113281 250.65625 68.113281 C 251.578125 69.113281 252.476562 70.132812 253.351562 71.171875 C 254.230469 72.214844 255.078125 73.273438 255.90625 74.355469 C 256.734375 75.433594 257.535156 76.53125 258.3125 77.648438 C 259.089844 78.765625 259.839844 79.898438 260.5625 81.050781 C 261.289062 82.199219 261.988281 83.367188 262.65625 84.550781 C 263.328125 85.734375 263.972656 86.929688 264.589844 88.144531 C 265.203125 89.355469 265.792969 90.582031 266.351562 91.820312 C 266.914062 93.0625 267.445312 94.3125 267.945312 95.574219 C 268.449219 96.839844 268.921875 98.113281 269.367188 99.398438 C 269.8125 100.683594 270.226562 101.980469 270.609375 103.285156 C 270.996094 104.589844 271.347656 105.902344 271.671875 107.222656 C 272 108.542969 272.292969 109.871094 272.554688 111.207031 C 272.820312 112.539062 273.050781 113.878906 273.253906 115.222656 C 273.457031 116.570312 273.628906 117.917969 273.769531 119.269531 C 273.910156 120.625 274.015625 121.980469 274.09375 123.335938 C 274.171875 124.695312 274.21875 126.054688 274.238281 127.414062 C 274.253906 128.773438 274.238281 130.132812 274.191406 131.492188 C 274.144531 132.851562 274.066406 134.207031 273.957031 135.5625 C 273.847656 136.921875 273.707031 138.273438 273.539062 139.621094 C 273.367188 140.972656 273.164062 142.316406 272.933594 143.65625 C 272.699219 144.996094 272.4375 146.328125 272.144531 147.65625 C 271.847656 148.984375 271.527344 150.304688 271.171875 151.617188 C 270.816406 152.933594 270.433594 154.238281 270.019531 155.53125 C 269.605469 156.828125 269.160156 158.113281 268.6875 159.386719 C 268.214844 160.664062 267.710938 161.925781 267.179688 163.179688 C 266.652344 164.429688 266.089844 165.671875 265.503906 166.894531 C 264.914062 168.121094 264.300781 169.335938 263.65625 170.535156 C 263.011719 171.730469 262.34375 172.914062 261.644531 174.082031 C 260.945312 175.25 260.222656 176.398438 259.472656 177.535156 C 258.722656 178.667969 257.945312 179.785156 257.144531 180.882812 L 185.285156 279.355469 Z M 185.285156 333.652344 C 99.167969 333.652344 44.207031 310.542969 44.207031 294.628906 C 44.207031 281.242188 83.222656 262.804688 146.882812 257.285156 L 178.011719 299.9375 C 178.21875 300.222656 178.441406 300.496094 178.683594 300.753906 C 178.921875 301.015625 179.179688 301.257812 179.449219 301.488281 C 179.714844 301.714844 179.996094 301.929688 180.292969 302.125 C 180.585938 302.320312 180.890625 302.496094 181.207031 302.65625 C 181.519531 302.816406 181.84375 302.957031 182.175781 303.082031 C 182.507812 303.203125 182.84375 303.304688 183.1875 303.386719 C 183.53125 303.46875 183.878906 303.53125 184.230469 303.574219 C 184.582031 303.613281 184.933594 303.636719 185.285156 303.636719 C 185.640625 303.636719 185.992188 303.613281 186.34375 303.574219 C 186.691406 303.53125 187.039062 303.46875 187.382812 303.386719 C 187.726562 303.304688 188.066406 303.203125 188.394531 303.082031 C 188.726562 302.960938 189.050781 302.816406 189.367188 302.65625 C 189.679688 302.496094 189.984375 302.320312 190.28125 302.125 C 190.574219 301.929688 190.855469 301.714844 191.125 301.488281 C 191.394531 301.257812 191.648438 301.015625 191.886719 300.753906 C 192.128906 300.496094 192.351562 300.222656 192.5625 299.9375 L 223.6875 257.285156 C 287.359375 262.800781 326.363281 281.238281 326.363281 294.628906 C 326.363281 310.542969 271.40625 333.652344 185.285156 333.652344 Z M 185.285156 333.652344 " fill-opacity="1" fill-rule="nonzero"/></g><path fill="#2c9090" d="M 237.773438 128.449219 C 237.773438 126.730469 237.691406 125.015625 237.519531 123.304688 C 237.351562 121.59375 237.101562 119.894531 236.765625 118.207031 C 236.429688 116.523438 236.011719 114.855469 235.515625 113.210938 C 235.015625 111.566406 234.4375 109.949219 233.777344 108.363281 C 233.121094 106.773438 232.386719 105.222656 231.578125 103.707031 C 230.765625 102.191406 229.882812 100.71875 228.929688 99.289062 C 227.972656 97.859375 226.953125 96.480469 225.859375 95.152344 C 224.769531 93.824219 223.617188 92.550781 222.402344 91.335938 C 221.1875 90.121094 219.914062 88.964844 218.585938 87.875 C 217.257812 86.785156 215.878906 85.761719 214.449219 84.808594 C 213.019531 83.851562 211.546875 82.96875 210.03125 82.160156 C 208.515625 81.347656 206.960938 80.613281 205.375 79.957031 C 203.785156 79.300781 202.167969 78.71875 200.523438 78.222656 C 198.878906 77.722656 197.214844 77.304688 195.527344 76.96875 C 193.84375 76.632812 192.144531 76.382812 190.433594 76.214844 C 188.722656 76.046875 187.007812 75.960938 185.289062 75.960938 C 183.570312 75.960938 181.855469 76.046875 180.144531 76.214844 C 178.433594 76.382812 176.734375 76.632812 175.050781 76.96875 C 173.363281 77.304688 171.699219 77.722656 170.054688 78.21875 C 168.40625 78.71875 166.792969 79.296875 165.203125 79.957031 C 163.613281 80.613281 162.0625 81.347656 160.546875 82.15625 C 159.03125 82.96875 157.558594 83.851562 156.128906 84.804688 C 154.699219 85.761719 153.320312 86.785156 151.992188 87.875 C 150.664062 88.964844 149.390625 90.117188 148.175781 91.332031 C 146.960938 92.546875 145.808594 93.820312 144.714844 95.148438 C 143.625 96.476562 142.601562 97.855469 141.648438 99.285156 C 140.691406 100.714844 139.808594 102.1875 139 103.703125 C 138.1875 105.21875 137.457031 106.773438 136.796875 108.359375 C 136.140625 109.949219 135.5625 111.566406 135.0625 113.210938 C 134.5625 114.855469 134.144531 116.519531 133.808594 118.207031 C 133.476562 119.890625 133.222656 121.589844 133.054688 123.300781 C 132.886719 125.011719 132.800781 126.726562 132.800781 128.445312 C 132.800781 130.164062 132.886719 131.878906 133.054688 133.589844 C 133.222656 135.300781 133.472656 137 133.808594 138.683594 C 134.144531 140.371094 134.5625 142.035156 135.0625 143.679688 C 135.558594 145.328125 136.136719 146.941406 136.796875 148.53125 C 137.453125 150.121094 138.1875 151.671875 139 153.1875 C 139.808594 154.703125 140.691406 156.175781 141.644531 157.605469 C 142.601562 159.035156 143.625 160.414062 144.714844 161.742188 C 145.804688 163.070312 146.957031 164.34375 148.171875 165.558594 C 149.386719 166.773438 150.660156 167.929688 151.988281 169.019531 C 153.316406 170.109375 154.699219 171.132812 156.125 172.085938 C 157.554688 173.042969 159.027344 173.925781 160.542969 174.734375 C 162.058594 175.546875 163.613281 176.28125 165.199219 176.9375 C 166.789062 177.59375 168.40625 178.171875 170.050781 178.671875 C 171.695312 179.171875 173.359375 179.589844 175.046875 179.925781 C 176.730469 180.261719 178.429688 180.511719 180.140625 180.679688 C 181.851562 180.847656 183.566406 180.933594 185.285156 180.933594 C 187.003906 180.929688 188.71875 180.84375 190.429688 180.675781 C 192.136719 180.503906 193.835938 180.25 195.519531 179.914062 C 197.207031 179.578125 198.871094 179.160156 200.515625 178.660156 C 202.160156 178.160156 203.773438 177.582031 205.363281 176.921875 C 206.949219 176.265625 208.5 175.53125 210.015625 174.71875 C 211.53125 173.90625 213.003906 173.023438 214.433594 172.070312 C 215.859375 171.113281 217.238281 170.09375 218.566406 169.003906 C 219.894531 167.910156 221.167969 166.757812 222.382812 165.542969 C 223.597656 164.328125 224.75 163.058594 225.839844 161.730469 C 226.929688 160.402344 227.953125 159.023438 228.910156 157.59375 C 229.863281 156.164062 230.746094 154.695312 231.558594 153.179688 C 232.367188 151.664062 233.101562 150.113281 233.761719 148.523438 C 234.421875 146.9375 235 145.320312 235.5 143.675781 C 236 142.035156 236.417969 140.367188 236.753906 138.683594 C 237.09375 137 237.34375 135.300781 237.515625 133.589844 C 237.6875 131.882812 237.773438 130.167969 237.773438 128.449219 Z M 150.8125 128.449219 C 150.8125 127.320312 150.867188 126.191406 150.976562 125.070312 C 151.085938 123.945312 151.253906 122.828125 151.472656 121.722656 C 151.695312 120.613281 151.96875 119.519531 152.296875 118.441406 C 152.621094 117.359375 153.003906 116.296875 153.433594 115.253906 C 153.867188 114.210938 154.347656 113.191406 154.882812 112.195312 C 155.414062 111.199219 155.992188 110.234375 156.621094 109.292969 C 157.25 108.355469 157.917969 107.449219 158.636719 106.574219 C 159.351562 105.703125 160.109375 104.867188 160.910156 104.070312 C 161.707031 103.269531 162.542969 102.511719 163.414062 101.796875 C 164.289062 101.082031 165.195312 100.410156 166.132812 99.78125 C 167.070312 99.152344 168.039062 98.574219 169.035156 98.042969 C 170.03125 97.507812 171.050781 97.027344 172.09375 96.59375 C 173.136719 96.164062 174.199219 95.785156 175.277344 95.457031 C 176.359375 95.128906 177.453125 94.855469 178.5625 94.632812 C 179.667969 94.414062 180.785156 94.246094 181.90625 94.136719 C 183.03125 94.027344 184.15625 93.972656 185.285156 93.972656 C 186.417969 93.972656 187.542969 94.027344 188.667969 94.136719 C 189.789062 94.246094 190.90625 94.414062 192.011719 94.632812 C 193.121094 94.855469 194.214844 95.128906 195.292969 95.457031 C 196.375 95.78125 197.4375 96.164062 198.480469 96.59375 C 199.523438 97.027344 200.542969 97.507812 201.539062 98.042969 C 202.535156 98.574219 203.503906 99.152344 204.441406 99.78125 C 205.378906 100.410156 206.285156 101.082031 207.160156 101.796875 C 208.03125 102.511719 208.867188 103.269531 209.664062 104.070312 C 210.464844 104.867188 211.222656 105.703125 211.9375 106.574219 C 212.652344 107.449219 213.324219 108.355469 213.953125 109.292969 C 214.582031 110.230469 215.160156 111.199219 215.691406 112.195312 C 216.222656 113.191406 216.707031 114.210938 217.140625 115.253906 C 217.570312 116.296875 217.949219 117.359375 218.277344 118.4375 C 218.605469 119.519531 218.878906 120.613281 219.101562 121.722656 C 219.320312 122.828125 219.488281 123.945312 219.597656 125.066406 C 219.707031 126.191406 219.761719 127.316406 219.761719 128.445312 C 219.761719 129.578125 219.707031 130.703125 219.597656 131.828125 C 219.488281 132.949219 219.320312 134.066406 219.101562 135.171875 C 218.878906 136.28125 218.605469 137.375 218.277344 138.457031 C 217.949219 139.535156 217.570312 140.597656 217.136719 141.640625 C 216.707031 142.683594 216.222656 143.703125 215.691406 144.699219 C 215.160156 145.695312 214.578125 146.664062 213.953125 147.601562 C 213.324219 148.539062 212.652344 149.445312 211.9375 150.320312 C 211.21875 151.191406 210.464844 152.027344 209.664062 152.824219 C 208.867188 153.625 208.03125 154.382812 207.15625 155.097656 C 206.285156 155.8125 205.378906 156.484375 204.441406 157.113281 C 203.5 157.742188 202.535156 158.320312 201.539062 158.851562 C 200.542969 159.386719 199.523438 159.867188 198.480469 160.300781 C 197.4375 160.730469 196.375 161.113281 195.292969 161.4375 C 194.214844 161.765625 193.121094 162.039062 192.011719 162.261719 C 190.90625 162.480469 189.789062 162.648438 188.664062 162.757812 C 187.542969 162.867188 186.414062 162.921875 185.285156 162.921875 C 184.15625 162.921875 183.03125 162.867188 181.90625 162.753906 C 180.785156 162.640625 179.667969 162.476562 178.5625 162.253906 C 177.457031 162.035156 176.363281 161.757812 175.28125 161.429688 C 174.203125 161.101562 173.140625 160.722656 172.097656 160.289062 C 171.054688 159.855469 170.039062 159.375 169.042969 158.839844 C 168.046875 158.308594 167.082031 157.730469 166.140625 157.101562 C 165.203125 156.472656 164.296875 155.800781 163.425781 155.085938 C 162.554688 154.371094 161.71875 153.613281 160.917969 152.8125 C 160.121094 152.015625 159.363281 151.179688 158.648438 150.308594 C 157.933594 149.4375 157.261719 148.53125 156.632812 147.59375 C 156.003906 146.652344 155.425781 145.6875 154.894531 144.691406 C 154.359375 143.695312 153.878906 142.679688 153.445312 141.636719 C 153.011719 140.59375 152.632812 139.53125 152.304688 138.453125 C 151.976562 137.371094 151.699219 136.277344 151.480469 135.171875 C 151.257812 134.0625 151.09375 132.949219 150.980469 131.824219 C 150.867188 130.703125 150.8125 129.578125 150.8125 128.449219 Z M 150.8125 128.449219 " fill-opacity="1" fill-rule="nonzero"/></svg>