<svg width="804" height="450" viewBox="0 0 804 450" fill="none" xmlns="http://www.w3.org/2000/svg">
<path d="M104.281 157.28C103.301 157.28 102.381 157.62 101.721 158.1L102.321 155.06H107.681V152.9H100.421L99.2611 159.46L100.661 160.42C101.541 159.7 102.621 159.24 103.661 159.24C105.121 159.24 106.221 160.2 106.221 161.62C106.221 163.06 105.121 164.08 103.541 164.08C102.321 164.08 101.201 163.3 100.741 162.28L98.9011 163.44C99.7211 165.06 101.581 166.24 103.661 166.24C106.361 166.24 108.561 164.44 108.561 161.6C108.561 159.06 106.801 157.28 104.281 157.28ZM115.349 166.24C119.149 166.24 120.149 163.2 120.149 159.48C120.149 155.74 119.149 152.74 115.349 152.74C111.549 152.74 110.529 155.74 110.529 159.48C110.529 163.2 111.549 166.24 115.349 166.24ZM115.349 164.08C113.409 164.08 112.869 161.98 112.869 159.48C112.869 156.96 113.409 154.9 115.349 154.9C117.289 154.9 117.829 156.96 117.829 159.48C117.829 161.98 117.289 164.08 115.349 164.08ZM124.986 166L131.746 152.22H130.366L123.606 166H124.986ZM124.566 157.92C126.046 157.92 127.246 156.76 127.246 155.26C127.246 153.78 126.046 152.58 124.566 152.58C123.066 152.58 121.906 153.78 121.906 155.26C121.906 156.76 123.066 157.92 124.566 157.92ZM124.566 156.52C123.846 156.52 123.306 155.98 123.306 155.26C123.306 154.56 123.846 153.98 124.566 153.98C125.266 153.98 125.846 154.56 125.846 155.26C125.846 155.98 125.266 156.52 124.566 156.52ZM130.626 166.2C132.106 166.2 133.306 165.04 133.306 163.54C133.306 162.06 132.106 160.86 130.626 160.86C129.126 160.86 127.966 162.06 127.966 163.54C127.966 165.04 129.126 166.2 130.626 166.2ZM130.626 164.8C129.906 164.8 129.366 164.26 129.366 163.54C129.366 162.82 129.906 162.26 130.626 162.26C131.326 162.26 131.906 162.82 131.906 163.54C131.906 164.26 131.326 164.8 130.626 164.8ZM143.827 163.06L141.348 156.66H138.848L142.748 166H144.868L148.808 156.66H146.288L143.827 163.06ZM151.481 154.78C152.321 154.78 152.981 154.16 152.981 153.36C152.981 152.54 152.321 151.94 151.481 151.94C150.661 151.94 149.961 152.54 149.961 153.36C149.961 154.16 150.661 154.78 151.481 154.78ZM152.641 166V156.66H150.321V166H152.641ZM158.52 166.24C160.42 166.24 162.32 165.2 162.32 163.3C162.32 162.44 161.94 161.12 159.84 160.58L158.34 160.18C157.8 160.06 157.34 159.78 157.34 159.3C157.34 158.72 157.84 158.3 158.56 158.3C159.22 158.3 159.8 158.7 159.8 159.34H162.02C162.04 157.26 160.16 156.42 158.5 156.42C156.46 156.42 155.02 157.74 155.02 159.2C155.02 160.38 155.56 161.5 157.66 162.06L158.9 162.38C159.6 162.54 160 162.78 160 163.3C160 163.9 159.4 164.36 158.48 164.36C157.5 164.36 156.94 163.76 156.94 163.12H154.76C154.8 165.12 156.66 166.24 158.52 166.24ZM165.642 154.78C166.482 154.78 167.142 154.16 167.142 153.36C167.142 152.54 166.482 151.94 165.642 151.94C164.822 151.94 164.122 152.54 164.122 153.36C164.122 154.16 164.822 154.78 165.642 154.78ZM166.802 166V156.66H164.482V166H166.802ZM172.72 156.66V153.22H170.4V156.66H168.72V158.5H170.4V166H172.72V158.5H174.7V156.66H172.72ZM180.658 166.24C183.318 166.24 185.638 164.28 185.638 161.32C185.638 158.36 183.318 156.42 180.658 156.42C177.998 156.42 175.698 158.36 175.698 161.32C175.698 164.28 177.998 166.24 180.658 166.24ZM180.658 164.08C179.218 164.08 178.038 162.96 178.038 161.32C178.038 159.72 179.218 158.58 180.658 158.58C182.098 158.58 183.298 159.72 183.298 161.32C183.298 162.96 182.098 164.08 180.658 164.08ZM192.821 156.42C191.661 156.42 190.641 157.1 190.141 158.66V156.66H187.821V166H190.161V162.74C190.161 160.12 191.001 158.6 192.521 158.6C192.861 158.6 193.341 158.66 193.881 158.94L194.341 156.74C193.981 156.54 193.381 156.42 192.821 156.42ZM198.871 166.24C200.771 166.24 202.671 165.2 202.671 163.3C202.671 162.44 202.291 161.12 200.191 160.58L198.691 160.18C198.151 160.06 197.691 159.78 197.691 159.3C197.691 158.72 198.191 158.3 198.911 158.3C199.571 158.3 200.151 158.7 200.151 159.34H202.371C202.391 157.26 200.511 156.42 198.851 156.42C196.811 156.42 195.371 157.74 195.371 159.2C195.371 160.38 195.911 161.5 198.011 162.06L199.251 162.38C199.951 162.54 200.351 162.78 200.351 163.3C200.351 163.9 199.751 164.36 198.831 164.36C197.851 164.36 197.291 163.76 197.291 163.12H195.111C195.151 165.12 197.011 166.24 198.871 166.24ZM212.836 166.24C214.736 166.24 216.636 165.2 216.636 163.3C216.636 162.44 216.256 161.12 214.156 160.58L212.656 160.18C212.116 160.06 211.656 159.78 211.656 159.3C211.656 158.72 212.156 158.3 212.876 158.3C213.536 158.3 214.116 158.7 214.116 159.34H216.336C216.356 157.26 214.476 156.42 212.816 156.42C210.776 156.42 209.336 157.74 209.336 159.2C209.336 160.38 209.876 161.5 211.976 162.06L213.216 162.38C213.916 162.54 214.316 162.78 214.316 163.3C214.316 163.9 213.716 164.36 212.796 164.36C211.816 164.36 211.256 163.76 211.256 163.12H209.076C209.116 165.12 210.976 166.24 212.836 166.24ZM227.898 161.24C227.898 158.32 225.798 156.42 223.138 156.42C220.458 156.42 218.238 158.34 218.238 161.32C218.238 164.24 220.358 166.24 223.138 166.24C224.838 166.24 226.498 165.48 227.358 164.12L225.798 162.94C225.258 163.7 224.278 164.14 223.278 164.14C221.878 164.14 220.878 163.44 220.618 162.14H227.858C227.878 161.8 227.898 161.5 227.898 161.24ZM220.618 160.52C220.898 159.1 221.918 158.48 223.158 158.48C224.458 158.48 225.458 159.24 225.598 160.52H220.618ZM239.128 161.24C239.128 158.32 237.028 156.42 234.368 156.42C231.688 156.42 229.468 158.34 229.468 161.32C229.468 164.24 231.588 166.24 234.368 166.24C236.068 166.24 237.728 165.48 238.588 164.12L237.028 162.94C236.488 163.7 235.508 164.14 234.508 164.14C233.108 164.14 232.108 163.44 231.848 162.14H239.088C239.108 161.8 239.128 161.5 239.128 161.24ZM231.848 160.52C232.128 159.1 233.148 158.48 234.388 158.48C235.688 158.48 236.688 159.24 236.828 160.52H231.848ZM124.15 185.06L121.67 178.66H119.17L123.07 188H125.19L129.13 178.66H126.61L124.15 185.06ZM137.549 179.96C136.929 178.98 135.689 178.42 134.409 178.42C131.769 178.42 129.849 180.5 129.849 183.32C129.849 186.22 131.849 188.24 134.349 188.24C135.689 188.24 136.929 187.56 137.549 186.54V188H139.869V178.66H137.549V179.96ZM134.829 186.08C133.309 186.08 132.169 184.82 132.169 183.32C132.169 181.82 133.309 180.58 134.809 180.58C136.189 180.58 137.509 181.72 137.509 183.32C137.509 184.88 136.269 186.08 134.829 186.08ZM147.636 178.42C146.476 178.42 145.456 179.1 144.956 180.66V178.66H142.636V188H144.976V184.74C144.976 182.12 145.816 180.6 147.336 180.6C147.676 180.6 148.156 180.66 148.696 180.94L149.156 178.74C148.796 178.54 148.196 178.42 147.636 178.42ZM151.862 176.78C152.702 176.78 153.362 176.16 153.362 175.36C153.362 174.54 152.702 173.94 151.862 173.94C151.042 173.94 150.342 174.54 150.342 175.36C150.342 176.16 151.042 176.78 151.862 176.78ZM153.022 188V178.66H150.702V188H153.022ZM162.92 179.96C162.3 178.98 161.06 178.42 159.78 178.42C157.14 178.42 155.22 180.5 155.22 183.32C155.22 186.22 157.22 188.24 159.72 188.24C161.06 188.24 162.3 187.56 162.92 186.54V188H165.24V178.66H162.92V179.96ZM160.2 186.08C158.68 186.08 157.54 184.82 157.54 183.32C157.54 181.82 158.68 180.58 160.18 180.58C161.56 180.58 162.88 181.72 162.88 183.32C162.88 184.88 161.64 186.08 160.2 186.08ZM171.167 178.66V175.22H168.847V178.66H167.167V180.5H168.847V188H171.167V180.5H173.147V178.66H171.167ZM176.081 176.78C176.921 176.78 177.581 176.16 177.581 175.36C177.581 174.54 176.921 173.94 176.081 173.94C175.261 173.94 174.561 174.54 174.561 175.36C174.561 176.16 175.261 176.78 176.081 176.78ZM177.241 188V178.66H174.921V188H177.241ZM184.379 188.24C187.039 188.24 189.359 186.28 189.359 183.32C189.359 180.36 187.039 178.42 184.379 178.42C181.719 178.42 179.419 180.36 179.419 183.32C179.419 186.28 181.719 188.24 184.379 188.24ZM184.379 186.08C182.939 186.08 181.759 184.96 181.759 183.32C181.759 181.72 182.939 180.58 184.379 180.58C185.819 180.58 187.019 181.72 187.019 183.32C187.019 184.96 185.819 186.08 184.379 186.08ZM196.762 178.42C195.802 178.42 194.342 178.96 193.862 180.14V178.66H191.542V188H193.862V183.04C193.862 181.24 195.182 180.62 196.242 180.62C197.282 180.62 198.182 181.42 198.182 182.92V188H200.502V182.76C200.502 180.04 199.162 178.42 196.762 178.42ZM219.059 188L213.899 174.22H211.259L206.079 188H208.679L209.859 184.62H215.279L216.479 188H219.059ZM212.579 176.9L214.539 182.5H210.599L212.579 176.9Z" fill="#0F243E"/>
<path d="M106.281 360.28C105.301 360.28 104.381 360.62 103.721 361.1L104.321 358.06H109.681V355.9H102.421L101.261 362.46L102.661 363.42C103.541 362.7 104.621 362.24 105.661 362.24C107.121 362.24 108.221 363.2 108.221 364.62C108.221 366.06 107.121 367.08 105.541 367.08C104.321 367.08 103.201 366.3 102.741 365.28L100.901 366.44C101.721 368.06 103.581 369.24 105.661 369.24C108.361 369.24 110.561 367.44 110.561 364.6C110.561 362.06 108.801 360.28 106.281 360.28ZM117.349 369.24C121.149 369.24 122.149 366.2 122.149 362.48C122.149 358.74 121.149 355.74 117.349 355.74C113.549 355.74 112.529 358.74 112.529 362.48C112.529 366.2 113.549 369.24 117.349 369.24ZM117.349 367.08C115.409 367.08 114.869 364.98 114.869 362.48C114.869 359.96 115.409 357.9 117.349 357.9C119.289 357.9 119.829 359.96 119.829 362.48C119.829 364.98 119.289 367.08 117.349 367.08ZM126.986 369L133.746 355.22H132.366L125.606 369H126.986ZM126.566 360.92C128.046 360.92 129.246 359.76 129.246 358.26C129.246 356.78 128.046 355.58 126.566 355.58C125.066 355.58 123.906 356.78 123.906 358.26C123.906 359.76 125.066 360.92 126.566 360.92ZM126.566 359.52C125.846 359.52 125.306 358.98 125.306 358.26C125.306 357.56 125.846 356.98 126.566 356.98C127.266 356.98 127.846 357.56 127.846 358.26C127.846 358.98 127.266 359.52 126.566 359.52ZM132.626 369.2C134.106 369.2 135.306 368.04 135.306 366.54C135.306 365.06 134.106 363.86 132.626 363.86C131.126 363.86 129.966 365.06 129.966 366.54C129.966 368.04 131.126 369.2 132.626 369.2ZM132.626 367.8C131.906 367.8 131.366 367.26 131.366 366.54C131.366 365.82 131.906 365.26 132.626 365.26C133.326 365.26 133.906 365.82 133.906 366.54C133.906 367.26 133.326 367.8 132.626 367.8ZM145.827 366.06L143.348 359.66H140.848L144.748 369H146.868L150.808 359.66H148.288L145.827 366.06ZM153.481 357.78C154.321 357.78 154.981 357.16 154.981 356.36C154.981 355.54 154.321 354.94 153.481 354.94C152.661 354.94 151.961 355.54 151.961 356.36C151.961 357.16 152.661 357.78 153.481 357.78ZM154.641 369V359.66H152.321V369H154.641ZM160.52 369.24C162.42 369.24 164.32 368.2 164.32 366.3C164.32 365.44 163.94 364.12 161.84 363.58L160.34 363.18C159.8 363.06 159.34 362.78 159.34 362.3C159.34 361.72 159.84 361.3 160.56 361.3C161.22 361.3 161.8 361.7 161.8 362.34H164.02C164.04 360.26 162.16 359.42 160.5 359.42C158.46 359.42 157.02 360.74 157.02 362.2C157.02 363.38 157.56 364.5 159.66 365.06L160.9 365.38C161.6 365.54 162 365.78 162 366.3C162 366.9 161.4 367.36 160.48 367.36C159.5 367.36 158.94 366.76 158.94 366.12H156.76C156.8 368.12 158.66 369.24 160.52 369.24ZM167.642 357.78C168.482 357.78 169.142 357.16 169.142 356.36C169.142 355.54 168.482 354.94 167.642 354.94C166.822 354.94 166.122 355.54 166.122 356.36C166.122 357.16 166.822 357.78 167.642 357.78ZM168.802 369V359.66H166.482V369H168.802ZM174.72 359.66V356.22H172.4V359.66H170.72V361.5H172.4V369H174.72V361.5H176.7V359.66H174.72ZM182.658 369.24C185.318 369.24 187.638 367.28 187.638 364.32C187.638 361.36 185.318 359.42 182.658 359.42C179.998 359.42 177.698 361.36 177.698 364.32C177.698 367.28 179.998 369.24 182.658 369.24ZM182.658 367.08C181.218 367.08 180.038 365.96 180.038 364.32C180.038 362.72 181.218 361.58 182.658 361.58C184.098 361.58 185.298 362.72 185.298 364.32C185.298 365.96 184.098 367.08 182.658 367.08ZM194.821 359.42C193.661 359.42 192.641 360.1 192.141 361.66V359.66H189.821V369H192.161V365.74C192.161 363.12 193.001 361.6 194.521 361.6C194.861 361.6 195.341 361.66 195.881 361.94L196.341 359.74C195.981 359.54 195.381 359.42 194.821 359.42ZM200.871 369.24C202.771 369.24 204.671 368.2 204.671 366.3C204.671 365.44 204.291 364.12 202.191 363.58L200.691 363.18C200.151 363.06 199.691 362.78 199.691 362.3C199.691 361.72 200.191 361.3 200.911 361.3C201.571 361.3 202.151 361.7 202.151 362.34H204.371C204.391 360.26 202.511 359.42 200.851 359.42C198.811 359.42 197.371 360.74 197.371 362.2C197.371 363.38 197.911 364.5 200.011 365.06L201.251 365.38C201.951 365.54 202.351 365.78 202.351 366.3C202.351 366.9 201.751 367.36 200.831 367.36C199.851 367.36 199.291 366.76 199.291 366.12H197.111C197.151 368.12 199.011 369.24 200.871 369.24ZM214.836 369.24C216.736 369.24 218.636 368.2 218.636 366.3C218.636 365.44 218.256 364.12 216.156 363.58L214.656 363.18C214.116 363.06 213.656 362.78 213.656 362.3C213.656 361.72 214.156 361.3 214.876 361.3C215.536 361.3 216.116 361.7 216.116 362.34H218.336C218.356 360.26 216.476 359.42 214.816 359.42C212.776 359.42 211.336 360.74 211.336 362.2C211.336 363.38 211.876 364.5 213.976 365.06L215.216 365.38C215.916 365.54 216.316 365.78 216.316 366.3C216.316 366.9 215.716 367.36 214.796 367.36C213.816 367.36 213.256 366.76 213.256 366.12H211.076C211.116 368.12 212.976 369.24 214.836 369.24ZM229.898 364.24C229.898 361.32 227.798 359.42 225.138 359.42C222.458 359.42 220.238 361.34 220.238 364.32C220.238 367.24 222.358 369.24 225.138 369.24C226.838 369.24 228.498 368.48 229.358 367.12L227.798 365.94C227.258 366.7 226.278 367.14 225.278 367.14C223.878 367.14 222.878 366.44 222.618 365.14H229.858C229.878 364.8 229.898 364.5 229.898 364.24ZM222.618 363.52C222.898 362.1 223.918 361.48 225.158 361.48C226.458 361.48 227.458 362.24 227.598 363.52H222.618ZM241.128 364.24C241.128 361.32 239.028 359.42 236.368 359.42C233.688 359.42 231.468 361.34 231.468 364.32C231.468 367.24 233.588 369.24 236.368 369.24C238.068 369.24 239.728 368.48 240.588 367.12L239.028 365.94C238.488 366.7 237.508 367.14 236.508 367.14C235.108 367.14 234.108 366.44 233.848 365.14H241.088C241.108 364.8 241.128 364.5 241.128 364.24ZM233.848 363.52C234.128 362.1 235.148 361.48 236.388 361.48C237.688 361.48 238.688 362.24 238.828 363.52H233.848ZM125.984 388.06L123.504 381.66H121.004L124.904 391H127.024L130.964 381.66H128.444L125.984 388.06ZM139.383 382.96C138.763 381.98 137.523 381.42 136.243 381.42C133.603 381.42 131.683 383.5 131.683 386.32C131.683 389.22 133.683 391.24 136.183 391.24C137.523 391.24 138.763 390.56 139.383 389.54V391H141.703V381.66H139.383V382.96ZM136.663 389.08C135.143 389.08 134.003 387.82 134.003 386.32C134.003 384.82 135.143 383.58 136.643 383.58C138.023 383.58 139.343 384.72 139.343 386.32C139.343 387.88 138.103 389.08 136.663 389.08ZM149.47 381.42C148.31 381.42 147.29 382.1 146.79 383.66V381.66H144.47V391H146.81V387.74C146.81 385.12 147.65 383.6 149.17 383.6C149.51 383.6 149.99 383.66 150.53 383.94L150.99 381.74C150.63 381.54 150.03 381.42 149.47 381.42ZM153.696 379.78C154.536 379.78 155.196 379.16 155.196 378.36C155.196 377.54 154.536 376.94 153.696 376.94C152.876 376.94 152.176 377.54 152.176 378.36C152.176 379.16 152.876 379.78 153.696 379.78ZM154.856 391V381.66H152.536V391H154.856ZM164.754 382.96C164.134 381.98 162.894 381.42 161.614 381.42C158.974 381.42 157.054 383.5 157.054 386.32C157.054 389.22 159.054 391.24 161.554 391.24C162.894 391.24 164.134 390.56 164.754 389.54V391H167.074V381.66H164.754V382.96ZM162.034 389.08C160.514 389.08 159.374 387.82 159.374 386.32C159.374 384.82 160.514 383.58 162.014 383.58C163.394 383.58 164.714 384.72 164.714 386.32C164.714 387.88 163.474 389.08 162.034 389.08ZM173.001 381.66V378.22H170.681V381.66H169.001V383.5H170.681V391H173.001V383.5H174.981V381.66H173.001ZM177.915 379.78C178.755 379.78 179.415 379.16 179.415 378.36C179.415 377.54 178.755 376.94 177.915 376.94C177.095 376.94 176.395 377.54 176.395 378.36C176.395 379.16 177.095 379.78 177.915 379.78ZM179.075 391V381.66H176.755V391H179.075ZM186.213 391.24C188.873 391.24 191.193 389.28 191.193 386.32C191.193 383.36 188.873 381.42 186.213 381.42C183.553 381.42 181.253 383.36 181.253 386.32C181.253 389.28 183.553 391.24 186.213 391.24ZM186.213 389.08C184.773 389.08 183.593 387.96 183.593 386.32C183.593 384.72 184.773 383.58 186.213 383.58C187.653 383.58 188.853 384.72 188.853 386.32C188.853 387.96 187.653 389.08 186.213 389.08ZM198.596 381.42C197.636 381.42 196.176 381.96 195.696 383.14V381.66H193.376V391H195.696V386.04C195.696 384.24 197.016 383.62 198.076 383.62C199.116 383.62 200.016 384.42 200.016 385.92V391H202.336V385.76C202.336 383.04 200.996 381.42 198.596 381.42ZM217.72 383.64C219.12 383.14 219.52 381.84 219.52 380.76C219.52 378.66 218 377.22 215.6 377.22H210.24V391H216.02C218.88 391 220.26 389.02 220.26 387.08C220.26 385.56 219.4 383.98 217.72 383.64ZM217.08 381.1C217.08 382.1 216.52 382.78 215.5 382.78H212.68V379.4H215.5C216.56 379.4 217.08 380.14 217.08 381.1ZM212.68 388.82V384.84H215.7C217.16 384.84 217.8 385.86 217.8 386.84C217.8 387.88 217.06 388.82 215.64 388.82H212.68Z" fill="#0F243E"/>
<g filter="url(#filter0_d_104_17602)">
<ellipse cx="135.633" cy="106.866" rx="24.6334" ry="24.8658" fill="#00D3AD"/>
<path fill-rule="evenodd" clip-rule="evenodd" d="M117.748 107.181C117.278 104.853 118.511 102.419 120.936 101.929L121.205 103.261C119.665 103.572 118.726 105.161 119.08 106.911C119.444 108.712 120.93 109.805 122.465 109.495L122.735 110.827C120.306 111.318 118.227 109.548 117.748 107.181Z" fill="#03876F"/>
<path fill-rule="evenodd" clip-rule="evenodd" d="M143.887 104.629C143.29 102.76 142.079 100.824 141.139 99.6138L142.212 98.78C143.21 100.064 144.519 102.143 145.181 104.215C145.828 106.238 145.95 108.601 144.006 109.977L143.221 108.867C144.379 108.048 144.5 106.546 143.887 104.629Z" fill="#03876F"/>
<path d="M133.321 104.309C132.297 104.309 131.45 103.426 131.45 102.205C131.45 100.984 132.297 100.126 133.321 100.126C134.323 100.126 135.169 100.984 135.169 102.205C135.169 103.426 134.323 104.309 133.321 104.309Z" fill="#BAF7EC"/>
<path d="M150.517 101.056C149.493 101.056 148.647 100.172 148.647 98.9513C148.647 97.7302 149.493 96.8728 150.517 96.8728C151.519 96.8728 152.365 97.7302 152.365 98.9513C152.365 100.172 151.519 101.056 150.517 101.056Z" fill="#BAF7EC"/>
</g>
<g filter="url(#filter1_d_104_17602)">
<ellipse cx="132.584" cy="314.825" rx="25.5837" ry="25.825" fill="#72D7E4"/>
<path fill-rule="evenodd" clip-rule="evenodd" d="M114.009 315.152C113.52 312.735 114.801 310.207 117.319 309.698L117.599 311.081C115.999 311.405 115.025 313.055 115.392 314.872C115.77 316.742 117.313 317.878 118.908 317.555L119.188 318.939C116.665 319.449 114.506 317.611 114.009 315.152Z" fill="#18C3D9"/>
<path fill-rule="evenodd" clip-rule="evenodd" d="M141.156 312.501C140.535 310.561 139.278 308.55 138.302 307.293L139.416 306.427C140.453 307.761 141.812 309.92 142.5 312.072C143.172 314.173 143.298 316.627 141.279 318.056L140.464 316.904C141.666 316.053 141.792 314.493 141.156 312.501Z" fill="#18C3D9"/>
<path d="M130.182 312.17C129.118 312.17 128.239 311.253 128.239 309.984C128.239 308.716 129.118 307.826 130.182 307.826C131.222 307.826 132.101 308.716 132.101 309.984C132.101 311.253 131.222 312.17 130.182 312.17Z" fill="#B9EFF5"/>
<path d="M148.042 308.791C146.978 308.791 146.099 307.873 146.099 306.605C146.099 305.337 146.978 304.446 148.042 304.446C149.082 304.446 149.961 305.337 149.961 306.605C149.961 307.873 149.082 308.791 148.042 308.791Z" fill="#B9EFF5"/>
</g>
<g filter="url(#filter2_d_104_17602)">
<circle cx="20.2161" cy="20.2161" r="20.2161" transform="matrix(-1 0 0 1 231.438 91.7336)" fill="#03876F"/>
<path fill-rule="evenodd" clip-rule="evenodd" d="M205.366 108.556C205.907 107.576 206.334 106.977 206.701 106.034L206.003 105.7C205.655 106.594 205.13 107.571 204.586 108.556C204.527 108.663 204.468 108.771 204.408 108.878C203.927 109.747 203.446 110.615 203.099 111.403C202.903 111.848 202.744 112.277 202.65 112.677C202.557 113.075 202.524 113.465 202.599 113.82C202.676 114.184 202.866 114.5 203.19 114.733C203.506 114.96 203.928 115.093 204.447 115.148L204.586 114.405C204.136 114.357 203.842 114.248 203.656 114.114C203.478 113.987 203.378 113.823 203.334 113.614C203.287 113.394 203.301 113.057 203.382 112.711C203.462 112.368 203.603 111.981 203.79 111.557C204.124 110.799 204.704 109.752 205.188 108.878C205.247 108.771 205.306 108.664 205.366 108.556Z" fill="#06563A"/>
<path d="M213.252 110.52C214.265 110.52 215.101 109.744 215.101 108.671C215.101 107.598 214.265 106.845 213.252 106.845C212.262 106.845 211.426 107.598 211.426 108.671C211.426 109.744 212.262 110.52 213.252 110.52Z" fill="#BAF7EC"/>
<path d="M200.183 108.07C201.196 108.07 202.032 107.293 202.032 106.22C202.032 105.147 201.196 104.394 200.183 104.394C199.193 104.394 198.356 105.147 198.356 106.22C198.356 107.293 199.193 108.07 200.183 108.07Z" fill="#BAF7EC"/>
<path fill-rule="evenodd" clip-rule="evenodd" d="M227.224 114.565C227.599 112.707 226.614 110.781 224.698 110.394L224.515 111.297C225.832 111.563 226.617 112.917 226.321 114.383C226.016 115.89 224.764 116.827 223.451 116.562L223.268 117.465C225.187 117.853 226.841 116.457 227.224 114.565Z" fill="#06563A"/>
</g>
<g filter="url(#filter3_d_104_17602)">
<circle cx="20.9959" cy="20.9959" r="20.9959" transform="matrix(-1 0 0 1 204.992 295)" fill="#18C3D9"/>
<path fill-rule="evenodd" clip-rule="evenodd" d="M177.914 312.472C178.476 311.453 178.92 310.831 179.301 309.852L178.576 309.505C178.215 310.434 177.669 311.448 177.105 312.471C177.043 312.583 176.982 312.694 176.92 312.806C176.42 313.708 175.921 314.61 175.56 315.429C175.356 315.89 175.191 316.336 175.094 316.752C174.998 317.165 174.963 317.57 175.04 317.938C175.12 318.317 175.318 318.645 175.655 318.887C175.983 319.122 176.421 319.26 176.96 319.317L177.105 318.546C176.637 318.496 176.332 318.383 176.138 318.244C175.954 318.112 175.85 317.942 175.804 317.725C175.756 317.496 175.77 317.146 175.854 316.787C175.937 316.43 176.084 316.029 176.278 315.588C176.625 314.801 177.227 313.714 177.729 312.806C177.791 312.695 177.852 312.584 177.914 312.472Z" fill="#0F7C8A"/>
<path d="M186.105 314.512C187.157 314.512 188.025 313.705 188.025 312.591C188.025 311.477 187.157 310.694 186.105 310.694C185.076 310.694 184.208 311.477 184.208 312.591C184.208 313.705 185.076 314.512 186.105 314.512Z" fill="#B9EFF5"/>
<path d="M172.532 311.966C173.583 311.966 174.452 311.16 174.452 310.046C174.452 308.931 173.583 308.149 172.532 308.149C171.503 308.149 170.635 308.931 170.635 310.046C170.635 311.16 171.503 311.966 172.532 311.966Z" fill="#B9EFF5"/>
<path fill-rule="evenodd" clip-rule="evenodd" d="M200.616 318.713C201.006 316.783 199.982 314.782 197.992 314.38L197.803 315.318C199.17 315.594 199.986 317 199.678 318.523C199.361 320.088 198.061 321.062 196.697 320.786L196.508 321.724C198.501 322.127 200.219 320.677 200.616 318.713Z" fill="#0F7C8A"/>
</g>
<g filter="url(#filter4_d_104_17602)">
<ellipse cx="172.225" cy="120.489" rx="18.4327" ry="18.6066" fill="#5AEDD2"/>
<path fill-rule="evenodd" clip-rule="evenodd" d="M158.926 120.708C158.581 119.002 159.486 117.234 161.244 116.879L161.412 117.708C160.203 117.952 159.483 119.194 159.755 120.54C160.034 121.923 161.183 122.784 162.389 122.54L162.556 123.369C160.795 123.725 159.277 122.444 158.926 120.708Z" fill="#00D3AD"/>
<path fill-rule="evenodd" clip-rule="evenodd" d="M178.482 118.789C178.031 117.378 177.119 115.92 176.412 115.01L177.08 114.491C177.823 115.447 178.796 116.994 179.288 118.531C179.769 120.039 179.845 121.753 178.44 122.747L177.952 122.057C178.867 121.409 178.943 120.23 178.482 118.789Z" fill="#00D3AD"/>
<path d="M170.494 118.576C169.728 118.576 169.095 117.915 169.095 117.002C169.095 116.088 169.728 115.446 170.494 115.446C171.244 115.446 171.877 116.088 171.877 117.002C171.877 117.915 171.244 118.576 170.494 118.576Z" fill="#BAF7EC"/>
<path d="M183.362 116.142C182.596 116.142 181.963 115.481 181.963 114.567C181.963 113.653 182.596 113.012 183.362 113.012C184.112 113.012 184.745 113.653 184.745 114.567C184.745 115.481 184.112 116.142 183.362 116.142Z" fill="#BAF7EC"/>
</g>
<g filter="url(#filter5_d_104_17602)">
<ellipse cx="19.1437" cy="19.3243" rx="19.1437" ry="19.3243" transform="matrix(-1 0 0 1 233.287 304)" fill="#0F7C8A"/>
<path fill-rule="evenodd" clip-rule="evenodd" d="M227.956 323.551C228.314 321.78 227.374 319.944 225.548 319.575L225.374 320.436C226.629 320.69 227.377 321.98 227.095 323.377C226.804 324.814 225.611 325.708 224.359 325.454L224.185 326.315C226.014 326.685 227.591 325.354 227.956 323.551Z" fill="#094A53"/>
<path fill-rule="evenodd" clip-rule="evenodd" d="M207.645 321.559C208.113 320.093 209.061 318.579 209.795 317.634L209.101 317.095C208.33 318.088 207.319 319.694 206.808 321.291C206.308 322.856 206.229 324.637 207.688 325.669L208.196 324.952C207.245 324.279 207.166 323.055 207.645 321.559Z" fill="#094A53"/>
<path d="M215.941 321.338C216.737 321.338 217.394 320.651 217.394 319.702C217.394 318.753 216.737 318.087 215.941 318.087C215.162 318.087 214.505 318.753 214.505 319.702C214.505 320.651 215.162 321.338 215.941 321.338Z" fill="#72D7E4"/>
<path d="M202.576 318.809C203.372 318.809 204.03 318.123 204.03 317.174C204.03 316.225 203.372 315.558 202.576 315.558C201.798 315.558 201.14 316.225 201.14 317.174C201.14 318.123 201.798 318.809 202.576 318.809Z" fill="#72D7E4"/>
</g>
<g filter="url(#filter6_d_104_17602)">
<rect x="330" y="44.8921" width="144.225" height="164.744" rx="2" fill="#F5F5F5"/>
</g>
<path d="M330 162.056H474.105V207.605C474.105 208.71 473.21 209.605 472.105 209.605H332C330.895 209.605 330 208.71 330 207.605V162.056Z" fill="#E5E5EB"/>
<path fill-rule="evenodd" clip-rule="evenodd" d="M386.193 174.955H343.546V170.494H386.193V174.955Z" fill="#C1C0CE"/>
<path fill-rule="evenodd" clip-rule="evenodd" d="M394.778 179.688H343.546V178.647H394.778V179.688Z" fill="#C1C0CE"/>
<path fill-rule="evenodd" clip-rule="evenodd" d="M394.778 187.302H343.546V186.261H394.778V187.302Z" fill="#C1C0CE"/>
<path fill-rule="evenodd" clip-rule="evenodd" d="M394.778 183.495H343.546V182.454H394.778V183.495Z" fill="#C1C0CE"/>
<rect x="343.546" y="194.601" width="24.3697" height="4.35717" rx="2.17859" fill="#C1C0CE"/>
<path fill-rule="evenodd" clip-rule="evenodd" d="M365.152 197.28H346.812V196.536H365.152V197.28Z" fill="#F5F5F5"/>
<rect x="407.494" y="170.172" width="56.0526" height="30.61" fill="#C1C0CE"/>
<path d="M330 114.543H474.197V160.879H330V114.543Z" fill="#E5E5EB"/>
<path fill-rule="evenodd" clip-rule="evenodd" d="M423.64 127.392H380.376V123.824H423.64V127.392Z" fill="#C1C0CE"/>
<path fill-rule="evenodd" clip-rule="evenodd" d="M435.287 133.044H368.91V132.004H435.287V133.044Z" fill="#C1C0CE"/>
<path fill-rule="evenodd" clip-rule="evenodd" d="M435.287 136.848H368.91V135.807H435.287V136.848Z" fill="#C1C0CE"/>
<rect x="355.504" y="143.244" width="17.6568" height="4.84116" fill="#C1C0CE"/>
<rect x="380.682" y="143.244" width="17.6568" height="4.84116" fill="#C1C0CE"/>
<rect x="405.859" y="143.244" width="17.6568" height="4.84116" fill="#C1C0CE"/>
<rect x="431.363" y="143.244" width="17.3298" height="4.84116" fill="#C1C0CE"/>
<path d="M330 55.7571H474.105V113.451H330V55.7571Z" fill="#00D3AD"/>
<path fill-rule="evenodd" clip-rule="evenodd" d="M386.193 74.0593H343.546V69.5988H386.193V74.0593Z" fill="#5AEDD2"/>
<path fill-rule="evenodd" clip-rule="evenodd" d="M389.474 81.0971H343.679V80.0563H389.474V81.0971Z" fill="#5AEDD2"/>
<path fill-rule="evenodd" clip-rule="evenodd" d="M394.778 91.3559H343.546V90.3151H394.778V91.3559Z" fill="#5AEDD2"/>
<path fill-rule="evenodd" clip-rule="evenodd" d="M394.778 86.2082H343.546V85.1674H394.778V86.2082Z" fill="#5AEDD2"/>
<rect x="407.529" y="68.8974" width="55.9129" height="34.9255" fill="#F5F5F5"/>
<rect x="343.406" y="97.9443" width="27.1392" height="6.57014" rx="1" fill="#5AEDD2"/>
<path fill-rule="evenodd" clip-rule="evenodd" d="M367.468 101.794H347.043V101.051H367.468V101.794Z" fill="#5AEDD2"/>
<path d="M330 49C330 46.2386 332.239 44 335 44H469.105C471.867 44 474.105 46.2386 474.105 49V54.3631H330V49Z" fill="#E5E5EB"/>
<path d="M334.578 47.4579H338.174V50.1549C338.174 51.1481 337.369 51.9533 336.376 51.9533V51.9533C335.383 51.9533 334.578 51.1481 334.578 50.1549V47.4579Z" fill="#3C4856"/>
<g filter="url(#filter7_d_104_17602)">
<rect x="330" y="253.892" width="144.225" height="164.744" rx="2" fill="#F5F5F5"/>
</g>
<path d="M330 371.057H474.105V416.605C474.105 417.71 473.21 418.605 472.105 418.605H332C330.895 418.605 330 417.71 330 416.605V371.057Z" fill="#E5E5EB"/>
<path fill-rule="evenodd" clip-rule="evenodd" d="M386.193 383.954H343.546V379.494H386.193V383.954Z" fill="#C1C0CE"/>
<path fill-rule="evenodd" clip-rule="evenodd" d="M394.778 388.688H343.546V387.647H394.778V388.688Z" fill="#C1C0CE"/>
<path fill-rule="evenodd" clip-rule="evenodd" d="M394.778 396.302H343.546V395.262H394.778V396.302Z" fill="#C1C0CE"/>
<path fill-rule="evenodd" clip-rule="evenodd" d="M394.778 392.495H343.546V391.454H394.778V392.495Z" fill="#C1C0CE"/>
<rect x="343.546" y="403.601" width="24.3697" height="4.35717" rx="2.17859" fill="#C1C0CE"/>
<path fill-rule="evenodd" clip-rule="evenodd" d="M365.152 406.28H346.812V405.536H365.152V406.28Z" fill="#F5F5F5"/>
<rect x="407.494" y="379.172" width="56.0526" height="30.61" fill="#C1C0CE"/>
<path d="M330 323.543H474.197V369.879H330V323.543Z" fill="#E5E5EB"/>
<path fill-rule="evenodd" clip-rule="evenodd" d="M423.64 336.392H380.376V332.824H423.64V336.392Z" fill="#C1C0CE"/>
<path fill-rule="evenodd" clip-rule="evenodd" d="M435.287 342.044H368.91V341.003H435.287V342.044Z" fill="#C1C0CE"/>
<path fill-rule="evenodd" clip-rule="evenodd" d="M435.287 345.848H368.91V344.807H435.287V345.848Z" fill="#C1C0CE"/>
<rect x="355.504" y="352.244" width="17.6568" height="4.84116" fill="#C1C0CE"/>
<rect x="380.682" y="352.244" width="17.6568" height="4.84116" fill="#C1C0CE"/>
<rect x="405.859" y="352.244" width="17.6568" height="4.84116" fill="#C1C0CE"/>
<rect x="431.363" y="352.244" width="17.3298" height="4.84116" fill="#C1C0CE"/>
<path d="M330 264.757H474.105V322.451H330V264.757Z" fill="#18C3D9"/>
<path fill-rule="evenodd" clip-rule="evenodd" d="M386.193 283.059H343.546V278.599H386.193V283.059Z" fill="#72D7E4"/>
<path fill-rule="evenodd" clip-rule="evenodd" d="M389.474 290.097H343.679V289.056H389.474V290.097Z" fill="#72D7E4"/>
<path fill-rule="evenodd" clip-rule="evenodd" d="M394.778 300.356H343.546V299.315H394.778V300.356Z" fill="#72D7E4"/>
<path fill-rule="evenodd" clip-rule="evenodd" d="M394.778 295.208H343.546V294.167H394.778V295.208Z" fill="#72D7E4"/>
<rect x="407.529" y="277.897" width="55.9129" height="34.9255" fill="#F5F5F5"/>
<rect x="343.406" y="306.944" width="27.1392" height="6.57014" rx="1" fill="#72D7E4"/>
<path fill-rule="evenodd" clip-rule="evenodd" d="M367.468 310.795H347.043V310.051H367.468V310.795Z" fill="#72D7E4"/>
<path d="M330 258C330 255.239 332.239 253 335 253H469.105C471.867 253 474.105 255.239 474.105 258V263.363H330V258Z" fill="#E5E5EB"/>
<path d="M334.578 256.458H338.174V259.155C338.174 260.148 337.369 260.953 336.376 260.953V260.953C335.383 260.953 334.578 260.148 334.578 259.155V256.458Z" fill="#3C4856"/>
<path d="M279 107L293 122.366L279 137" stroke="#00D3AD" stroke-width="4" stroke-linecap="round" stroke-linejoin="round"/>
<path d="M522 107L536 122.366L522 137" stroke="#00D3AD" stroke-width="4" stroke-linecap="round" stroke-linejoin="round"/>
<path d="M279 321L293 336.366L279 351" stroke="#103869" stroke-width="4" stroke-linecap="round" stroke-linejoin="round"/>
<path d="M522 321L536 336.366L522 351" stroke="#103869" stroke-width="4" stroke-linecap="round" stroke-linejoin="round"/>
<path d="M635.758 110C637.438 108.12 638.638 105.88 638.638 103.36C638.638 98.6 635.238 95.44 629.998 95.44C624.758 95.44 621.718 98.64 621.078 103.32L625.838 104.12C626.158 101.84 627.478 100.32 629.798 100.32C631.838 100.32 633.278 101.56 633.278 103.32C633.278 104.2 632.558 105.56 631.478 106.88L621.238 119.16V122H638.878V117.08H629.598L635.758 110ZM655.641 107.88C657.761 106.8 659.081 104.88 659.081 102.68C659.161 98.24 655.561 95.44 650.961 95.44C647.561 95.44 644.881 96.96 643.041 99.12L645.921 102.4C646.921 101.12 648.681 100.28 650.361 100.28C652.281 100.28 653.641 101.28 653.721 102.88C653.841 104.72 652.201 106.24 649.361 106.24H647.881V110.28H650.361C653.081 110.28 654.921 111.8 654.921 114C654.921 116.12 653.081 117.68 650.361 117.68C648.441 117.68 646.921 116.72 645.641 115.04L642.001 117.88C643.881 120.88 646.881 122.48 650.601 122.48C656.281 122.48 660.281 119.12 660.281 114.4C660.281 111.32 658.441 108.92 655.641 107.88ZM669.694 122L683.374 94.44H680.454L666.814 122H669.694ZM668.734 105.84C671.694 105.84 674.094 103.52 674.094 100.52C674.094 97.56 671.694 95.16 668.734 95.16C665.734 95.16 663.414 97.56 663.414 100.52C663.414 103.52 665.734 105.84 668.734 105.84ZM668.734 102.92C667.334 102.92 666.334 101.92 666.334 100.52C666.334 99.2 667.334 98.08 668.734 98.08C670.054 98.08 671.174 99.2 671.174 100.52C671.174 101.92 670.054 102.92 668.734 102.92ZM681.014 122.36C683.974 122.36 686.374 120.04 686.374 117.04C686.374 114.08 683.974 111.68 681.014 111.68C678.014 111.68 675.694 114.08 675.694 117.04C675.694 120.04 678.014 122.36 681.014 122.36ZM681.014 119.44C679.614 119.44 678.614 118.44 678.614 117.04C678.614 115.72 679.614 114.6 681.014 114.6C682.374 114.6 683.454 115.72 683.454 117.04C683.454 118.44 682.374 119.44 681.014 119.44Z" fill="#0F243E"/>
<path d="M626.083 309.96V314.88L632.123 312.56V332H637.403V305.44H636.963L626.083 309.96ZM641.786 309.96V314.88L647.826 312.56V332H653.106V305.44H652.666L641.786 309.96ZM664.049 332L677.729 304.44H674.809L661.169 332H664.049ZM663.089 315.84C666.049 315.84 668.449 313.52 668.449 310.52C668.449 307.56 666.049 305.16 663.089 305.16C660.089 305.16 657.769 307.56 657.769 310.52C657.769 313.52 660.089 315.84 663.089 315.84ZM663.089 312.92C661.689 312.92 660.689 311.92 660.689 310.52C660.689 309.2 661.689 308.08 663.089 308.08C664.409 308.08 665.529 309.2 665.529 310.52C665.529 311.92 664.409 312.92 663.089 312.92ZM675.369 332.36C678.329 332.36 680.729 330.04 680.729 327.04C680.729 324.08 678.329 321.68 675.369 321.68C672.369 321.68 670.049 324.08 670.049 327.04C670.049 330.04 672.369 332.36 675.369 332.36ZM675.369 329.44C673.969 329.44 672.969 328.44 672.969 327.04C672.969 325.72 673.969 324.6 675.369 324.6C676.729 324.6 677.809 325.72 677.809 327.04C677.809 328.44 676.729 329.44 675.369 329.44Z" fill="#0F243E"/>
<path d="M586.417 151.336C588.797 151.336 590.701 150.244 591.933 148.536L589.161 146.604C588.573 147.416 587.481 147.92 586.445 147.92C584.373 147.92 582.973 146.352 582.973 144.42C582.973 142.516 584.373 141.004 586.445 141.004C587.481 141.004 588.573 141.508 589.161 142.32L591.933 140.388C590.701 138.68 588.797 137.588 586.417 137.588C582.609 137.588 579.249 140.276 579.249 144.42C579.249 148.564 582.609 151.336 586.417 151.336ZM600.55 151.336C604.274 151.336 607.578 148.592 607.578 144.476C607.578 140.332 604.274 137.588 600.55 137.588C596.826 137.588 593.522 140.332 593.522 144.476C593.522 148.592 596.826 151.336 600.55 151.336ZM600.55 147.92C598.73 147.92 597.246 146.492 597.246 144.476C597.246 142.432 598.73 141.004 600.55 141.004C602.37 141.004 603.854 142.432 603.854 144.476C603.854 146.492 602.37 147.92 600.55 147.92ZM618.055 137.588C616.795 137.588 614.751 138.344 614.135 140.052V137.924H610.467V151H614.135V144.14C614.135 141.76 615.759 141.06 617.075 141.06C618.335 141.06 619.567 141.984 619.567 144.028V151H623.235V143.832C623.263 139.912 621.471 137.588 618.055 137.588ZM631.95 146.268L628.758 137.924H624.782L630.298 151H633.574L639.09 137.924H635.086L631.95 146.268ZM653.701 144.252C653.701 140.248 650.649 137.588 646.897 137.588C643.173 137.588 639.953 140.248 639.953 144.476C639.953 148.508 642.893 151.336 646.925 151.336C649.221 151.336 651.489 150.356 652.721 148.704L650.593 146.548C649.781 147.472 648.493 148.088 647.149 148.088C645.413 148.088 644.181 147.192 643.789 145.652H653.617C653.673 145.064 653.701 144.616 653.701 144.252ZM643.789 143.272C644.181 141.508 645.469 140.752 646.981 140.752C648.633 140.752 649.893 141.732 650.005 143.272H643.789ZM664.017 137.588C662.393 137.588 660.909 138.54 660.181 140.724V137.924H656.541V151H660.209V146.52C660.209 142.796 661.497 141.032 663.373 141.032C663.821 141.032 664.465 141.088 665.249 141.508L666.089 138.008C665.501 137.7 664.717 137.588 664.017 137.588ZM672.482 151.336C675.17 151.336 677.97 149.908 677.97 147.164C677.97 146.1 677.578 144.14 674.442 143.3L672.286 142.74C671.558 142.544 670.998 142.236 670.998 141.62C670.998 140.948 671.67 140.472 672.51 140.472C673.378 140.472 674.106 140.948 674.106 141.844H677.606C677.634 138.736 674.834 137.588 672.454 137.588C669.43 137.588 667.33 139.492 667.33 141.508C667.33 142.88 667.778 144.756 671.138 145.652L672.874 146.072C673.854 146.324 674.302 146.604 674.302 147.164C674.302 147.92 673.49 148.452 672.426 148.452C671.138 148.452 670.494 147.64 670.494 146.884H667.05C667.078 149.768 669.738 151.336 672.482 151.336ZM682.67 135.628C683.958 135.628 684.994 134.648 684.994 133.416C684.994 132.184 683.958 131.232 682.67 131.232C681.41 131.232 680.346 132.184 680.346 133.416C680.346 134.648 681.41 135.628 682.67 135.628ZM684.518 151V137.924H680.85V151H684.518ZM694.421 151.336C698.145 151.336 701.449 148.592 701.449 144.476C701.449 140.332 698.145 137.588 694.421 137.588C690.697 137.588 687.393 140.332 687.393 144.476C687.393 148.592 690.697 151.336 694.421 151.336ZM694.421 147.92C692.601 147.92 691.117 146.492 691.117 144.476C691.117 142.432 692.601 141.004 694.421 141.004C696.241 141.004 697.725 142.432 697.725 144.476C697.725 146.492 696.241 147.92 694.421 147.92ZM711.926 137.588C710.666 137.588 708.622 138.344 708.006 140.052V137.924H704.338V151H708.006V144.14C708.006 141.76 709.63 141.06 710.946 141.06C712.206 141.06 713.438 141.984 713.438 144.028V151H717.106V143.832C717.134 139.912 715.342 137.588 711.926 137.588Z" fill="#0F243E"/>
<path d="M586.417 362.336C588.797 362.336 590.701 361.244 591.933 359.536L589.161 357.604C588.573 358.416 587.481 358.92 586.445 358.92C584.373 358.92 582.973 357.352 582.973 355.42C582.973 353.516 584.373 352.004 586.445 352.004C587.481 352.004 588.573 352.508 589.161 353.32L591.933 351.388C590.701 349.68 588.797 348.588 586.417 348.588C582.609 348.588 579.249 351.276 579.249 355.42C579.249 359.564 582.609 362.336 586.417 362.336ZM600.55 362.336C604.274 362.336 607.578 359.592 607.578 355.476C607.578 351.332 604.274 348.588 600.55 348.588C596.826 348.588 593.522 351.332 593.522 355.476C593.522 359.592 596.826 362.336 600.55 362.336ZM600.55 358.92C598.73 358.92 597.246 357.492 597.246 355.476C597.246 353.432 598.73 352.004 600.55 352.004C602.37 352.004 603.854 353.432 603.854 355.476C603.854 357.492 602.37 358.92 600.55 358.92ZM618.055 348.588C616.795 348.588 614.751 349.344 614.135 351.052V348.924H610.467V362H614.135V355.14C614.135 352.76 615.759 352.06 617.075 352.06C618.335 352.06 619.567 352.984 619.567 355.028V362H623.235V354.832C623.263 350.912 621.471 348.588 618.055 348.588ZM631.95 357.268L628.758 348.924H624.782L630.298 362H633.574L639.09 348.924H635.086L631.95 357.268ZM653.701 355.252C653.701 351.248 650.649 348.588 646.897 348.588C643.173 348.588 639.953 351.248 639.953 355.476C639.953 359.508 642.893 362.336 646.925 362.336C649.221 362.336 651.489 361.356 652.721 359.704L650.593 357.548C649.781 358.472 648.493 359.088 647.149 359.088C645.413 359.088 644.181 358.192 643.789 356.652H653.617C653.673 356.064 653.701 355.616 653.701 355.252ZM643.789 354.272C644.181 352.508 645.469 351.752 646.981 351.752C648.633 351.752 649.893 352.732 650.005 354.272H643.789ZM664.017 348.588C662.393 348.588 660.909 349.54 660.181 351.724V348.924H656.541V362H660.209V357.52C660.209 353.796 661.497 352.032 663.373 352.032C663.821 352.032 664.465 352.088 665.249 352.508L666.089 349.008C665.501 348.7 664.717 348.588 664.017 348.588ZM672.482 362.336C675.17 362.336 677.97 360.908 677.97 358.164C677.97 357.1 677.578 355.14 674.442 354.3L672.286 353.74C671.558 353.544 670.998 353.236 670.998 352.62C670.998 351.948 671.67 351.472 672.51 351.472C673.378 351.472 674.106 351.948 674.106 352.844H677.606C677.634 349.736 674.834 348.588 672.454 348.588C669.43 348.588 667.33 350.492 667.33 352.508C667.33 353.88 667.778 355.756 671.138 356.652L672.874 357.072C673.854 357.324 674.302 357.604 674.302 358.164C674.302 358.92 673.49 359.452 672.426 359.452C671.138 359.452 670.494 358.64 670.494 357.884H667.05C667.078 360.768 669.738 362.336 672.482 362.336ZM682.67 346.628C683.958 346.628 684.994 345.648 684.994 344.416C684.994 343.184 683.958 342.232 682.67 342.232C681.41 342.232 680.346 343.184 680.346 344.416C680.346 345.648 681.41 346.628 682.67 346.628ZM684.518 362V348.924H680.85V362H684.518ZM694.421 362.336C698.145 362.336 701.449 359.592 701.449 355.476C701.449 351.332 698.145 348.588 694.421 348.588C690.697 348.588 687.393 351.332 687.393 355.476C687.393 359.592 690.697 362.336 694.421 362.336ZM694.421 358.92C692.601 358.92 691.117 357.492 691.117 355.476C691.117 353.432 692.601 352.004 694.421 352.004C696.241 352.004 697.725 353.432 697.725 355.476C697.725 357.492 696.241 358.92 694.421 358.92ZM711.926 348.588C710.666 348.588 708.622 349.344 708.006 351.052V348.924H704.338V362H708.006V355.14C708.006 352.76 709.63 352.06 710.946 352.06C712.206 352.06 713.438 352.984 713.438 355.028V362H717.106V354.832C717.134 350.912 715.342 348.588 711.926 348.588Z" fill="#0F243E"/>
<defs>
<filter id="filter0_d_104_17602" x="107" y="78" width="57.2668" height="57.7316" filterUnits="userSpaceOnUse" color-interpolation-filters="sRGB">
<feFlood flood-opacity="0" result="BackgroundImageFix"/>
<feColorMatrix in="SourceAlpha" type="matrix" values="0 0 0 0 0 0 0 0 0 0 0 0 0 0 0 0 0 0 127 0" result="hardAlpha"/>
<feOffset/>
<feGaussianBlur stdDeviation="2"/>
<feComposite in2="hardAlpha" operator="out"/>
<feColorMatrix type="matrix" values="0 0 0 0 0 0 0 0 0 0 0 0 0 0 0 0 0 0 0.08 0"/>
<feBlend mode="normal" in2="BackgroundImageFix" result="effect1_dropShadow_104_17602"/>
<feBlend mode="normal" in="SourceGraphic" in2="effect1_dropShadow_104_17602" result="shape"/>
</filter>
<filter id="filter1_d_104_17602" x="103" y="285" width="59.1672" height="59.65" filterUnits="userSpaceOnUse" color-interpolation-filters="sRGB">
<feFlood flood-opacity="0" result="BackgroundImageFix"/>
<feColorMatrix in="SourceAlpha" type="matrix" values="0 0 0 0 0 0 0 0 0 0 0 0 0 0 0 0 0 0 127 0" result="hardAlpha"/>
<feOffset/>
<feGaussianBlur stdDeviation="2"/>
<feComposite in2="hardAlpha" operator="out"/>
<feColorMatrix type="matrix" values="0 0 0 0 0 0 0 0 0 0 0 0 0 0 0 0 0 0 0.08 0"/>
<feBlend mode="normal" in2="BackgroundImageFix" result="effect1_dropShadow_104_17602"/>
<feBlend mode="normal" in="SourceGraphic" in2="effect1_dropShadow_104_17602" result="shape"/>
</filter>
<filter id="filter2_d_104_17602" x="187.005" y="87.7336" width="48.4321" height="48.4321" filterUnits="userSpaceOnUse" color-interpolation-filters="sRGB">
<feFlood flood-opacity="0" result="BackgroundImageFix"/>
<feColorMatrix in="SourceAlpha" type="matrix" values="0 0 0 0 0 0 0 0 0 0 0 0 0 0 0 0 0 0 127 0" result="hardAlpha"/>
<feOffset/>
<feGaussianBlur stdDeviation="2"/>
<feComposite in2="hardAlpha" operator="out"/>
<feColorMatrix type="matrix" values="0 0 0 0 0 0 0 0 0 0 0 0 0 0 0 0 0 0 0.08 0"/>
<feBlend mode="normal" in2="BackgroundImageFix" result="effect1_dropShadow_104_17602"/>
<feBlend mode="normal" in="SourceGraphic" in2="effect1_dropShadow_104_17602" result="shape"/>
</filter>
<filter id="filter3_d_104_17602" x="159" y="291" width="49.9919" height="49.9918" filterUnits="userSpaceOnUse" color-interpolation-filters="sRGB">
<feFlood flood-opacity="0" result="BackgroundImageFix"/>
<feColorMatrix in="SourceAlpha" type="matrix" values="0 0 0 0 0 0 0 0 0 0 0 0 0 0 0 0 0 0 127 0" result="hardAlpha"/>
<feOffset/>
<feGaussianBlur stdDeviation="2"/>
<feComposite in2="hardAlpha" operator="out"/>
<feColorMatrix type="matrix" values="0 0 0 0 0 0 0 0 0 0 0 0 0 0 0 0 0 0 0.08 0"/>
<feBlend mode="normal" in2="BackgroundImageFix" result="effect1_dropShadow_104_17602"/>
<feBlend mode="normal" in="SourceGraphic" in2="effect1_dropShadow_104_17602" result="shape"/>
</filter>
<filter id="filter4_d_104_17602" x="149.792" y="97.8826" width="44.8652" height="45.2131" filterUnits="userSpaceOnUse" color-interpolation-filters="sRGB">
<feFlood flood-opacity="0" result="BackgroundImageFix"/>
<feColorMatrix in="SourceAlpha" type="matrix" values="0 0 0 0 0 0 0 0 0 0 0 0 0 0 0 0 0 0 127 0" result="hardAlpha"/>
<feOffset/>
<feGaussianBlur stdDeviation="2"/>
<feComposite in2="hardAlpha" operator="out"/>
<feColorMatrix type="matrix" values="0 0 0 0 0 0 0 0 0 0 0 0 0 0 0 0 0 0 0.08 0"/>
<feBlend mode="normal" in2="BackgroundImageFix" result="effect1_dropShadow_104_17602"/>
<feBlend mode="normal" in="SourceGraphic" in2="effect1_dropShadow_104_17602" result="shape"/>
</filter>
<filter id="filter5_d_104_17602" x="191" y="300" width="46.2874" height="46.6486" filterUnits="userSpaceOnUse" color-interpolation-filters="sRGB">
<feFlood flood-opacity="0" result="BackgroundImageFix"/>
<feColorMatrix in="SourceAlpha" type="matrix" values="0 0 0 0 0 0 0 0 0 0 0 0 0 0 0 0 0 0 127 0" result="hardAlpha"/>
<feOffset/>
<feGaussianBlur stdDeviation="2"/>
<feComposite in2="hardAlpha" operator="out"/>
<feColorMatrix type="matrix" values="0 0 0 0 0 0 0 0 0 0 0 0 0 0 0 0 0 0 0.08 0"/>
<feBlend mode="normal" in2="BackgroundImageFix" result="effect1_dropShadow_104_17602"/>
<feBlend mode="normal" in="SourceGraphic" in2="effect1_dropShadow_104_17602" result="shape"/>
</filter>
<filter id="filter6_d_104_17602" x="324" y="38.8921" width="160.225" height="180.744" filterUnits="userSpaceOnUse" color-interpolation-filters="sRGB">
<feFlood flood-opacity="0" result="BackgroundImageFix"/>
<feColorMatrix in="SourceAlpha" type="matrix" values="0 0 0 0 0 0 0 0 0 0 0 0 0 0 0 0 0 0 127 0" result="hardAlpha"/>
<feOffset dx="2" dy="2"/>
<feGaussianBlur stdDeviation="4"/>
<feComposite in2="hardAlpha" operator="out"/>
<feColorMatrix type="matrix" values="0 0 0 0 0 0 0 0 0 0 0 0 0 0 0 0 0 0 0.15 0"/>
<feBlend mode="normal" in2="BackgroundImageFix" result="effect1_dropShadow_104_17602"/>
<feBlend mode="normal" in="SourceGraphic" in2="effect1_dropShadow_104_17602" result="shape"/>
</filter>
<filter id="filter7_d_104_17602" x="324" y="247.892" width="160.225" height="180.744" filterUnits="userSpaceOnUse" color-interpolation-filters="sRGB">
<feFlood flood-opacity="0" result="BackgroundImageFix"/>
<feColorMatrix in="SourceAlpha" type="matrix" values="0 0 0 0 0 0 0 0 0 0 0 0 0 0 0 0 0 0 127 0" result="hardAlpha"/>
<feOffset dx="2" dy="2"/>
<feGaussianBlur stdDeviation="4"/>
<feComposite in2="hardAlpha" operator="out"/>
<feColorMatrix type="matrix" values="0 0 0 0 0 0 0 0 0 0 0 0 0 0 0 0 0 0 0.15 0"/>
<feBlend mode="normal" in2="BackgroundImageFix" result="effect1_dropShadow_104_17602"/>
<feBlend mode="normal" in="SourceGraphic" in2="effect1_dropShadow_104_17602" result="shape"/>
</filter>
</defs>
</svg>
